<svg xmlns="http://www.w3.org/2000/svg" xmlns:xlink="http://www.w3.org/1999/xlink" width="1920" zoomAndPan="magnify" viewBox="0 0 1440 809.999993" height="1080" preserveAspectRatio="xMidYMid meet" version="1.0"><defs><clipPath id="id1"><path d="M 486.328125 464.402344 L 953.578125 464.402344 L 953.578125 810 L 486.328125 810 Z M 486.328125 464.402344 " clip-rule="nonzero"/></clipPath></defs><rect x="-144" width="1728" fill="#ffffff" y="-80.999999" height="971.999992" fill-opacity="1"/><rect x="-144" width="1728" fill="#ffffff" y="-80.999999" height="971.999992" fill-opacity="1"/><rect x="-144" width="1728" fill="#ffffff" y="-80.999999" height="971.999992" fill-opacity="1"/><rect x="-144" width="1728" fill="#ffffff" y="-80.999999" height="971.999992" fill-opacity="1"/><g clip-path="url(#id1)"><path fill="#154e5e" d="M 953.09375 697.652344 C 953.09375 701.46875 953 705.285156 952.8125 709.097656 C 952.625 712.910156 952.34375 716.714844 951.96875 720.515625 C 951.597656 724.316406 951.128906 728.101562 950.566406 731.878906 C 950.007812 735.652344 949.355469 739.414062 948.609375 743.15625 C 947.867188 746.902344 947.027344 750.625 946.101562 754.328125 C 945.171875 758.03125 944.15625 761.710938 943.046875 765.363281 C 941.9375 769.015625 940.742188 772.636719 939.453125 776.234375 C 938.167969 779.828125 936.792969 783.386719 935.332031 786.914062 C 933.871094 790.441406 932.324219 793.929688 930.691406 797.378906 C 929.058594 800.832031 927.34375 804.238281 925.542969 807.605469 C 923.742188 810.972656 921.859375 814.292969 919.898438 817.566406 C 917.933594 820.84375 915.890625 824.066406 913.769531 827.238281 C 911.648438 830.414062 909.449219 833.535156 907.175781 836.601562 C 904.902344 839.667969 902.550781 842.675781 900.128906 845.625 C 897.707031 848.574219 895.214844 851.464844 892.648438 854.292969 C 890.085938 857.121094 887.453125 859.886719 884.753906 862.585938 C 882.050781 865.285156 879.289062 867.917969 876.457031 870.480469 C 873.628906 873.042969 870.738281 875.535156 867.785156 877.957031 C 864.835938 880.378906 861.824219 882.726562 858.757812 885 C 855.691406 887.273438 852.570312 889.472656 849.394531 891.59375 C 846.21875 893.714844 842.992188 895.753906 839.71875 897.71875 C 836.441406 899.679688 833.121094 901.5625 829.753906 903.359375 C 826.386719 905.160156 822.976562 906.875 819.523438 908.507812 C 816.070312 910.140625 812.582031 911.6875 809.054688 913.148438 C 805.527344 914.609375 801.964844 915.980469 798.367188 917.269531 C 794.773438 918.554688 791.148438 919.75 787.496094 920.859375 C 783.839844 921.96875 780.160156 922.984375 776.457031 923.914062 C 772.753906 924.839844 769.027344 925.675781 765.28125 926.421875 C 761.539062 927.167969 757.777344 927.820312 754 928.378906 C 750.222656 928.9375 746.433594 929.40625 742.632812 929.78125 C 738.832031 930.152344 735.023438 930.433594 731.210938 930.621094 C 727.398438 930.808594 723.582031 930.902344 719.761719 930.902344 C 715.941406 930.902344 712.125 930.808594 708.3125 930.621094 C 704.5 930.433594 700.691406 930.152344 696.890625 929.78125 C 693.089844 929.40625 689.300781 928.9375 685.523438 928.378906 C 681.746094 927.820312 677.984375 927.167969 674.242188 926.421875 C 670.496094 925.675781 666.769531 924.839844 663.066406 923.914062 C 659.363281 922.984375 655.683594 921.96875 652.027344 920.859375 C 648.375 919.75 644.75 918.554688 641.15625 917.269531 C 637.558594 915.980469 633.996094 914.609375 630.46875 913.148438 C 626.941406 911.6875 623.453125 910.140625 620 908.507812 C 616.546875 906.875 613.136719 905.160156 609.769531 903.359375 C 606.402344 901.5625 603.082031 899.679688 599.804688 897.71875 C 596.53125 895.753906 593.304688 893.714844 590.128906 891.59375 C 586.953125 889.472656 583.832031 887.273438 580.765625 885 C 577.699219 882.726562 574.6875 880.378906 571.738281 877.957031 C 568.785156 875.535156 565.894531 873.042969 563.066406 870.480469 C 560.234375 867.917969 557.472656 865.285156 554.769531 862.585938 C 552.070312 859.886719 549.4375 857.121094 546.875 854.292969 C 544.308594 851.464844 541.816406 848.574219 539.394531 845.625 C 536.972656 842.675781 534.621094 839.667969 532.347656 836.601562 C 530.074219 833.535156 527.875 830.414062 525.753906 827.238281 C 523.632812 824.066406 521.589844 820.839844 519.625 817.566406 C 517.664062 814.292969 515.78125 810.972656 513.980469 807.605469 C 512.179688 804.238281 510.464844 800.832031 508.832031 797.378906 C 507.199219 793.929688 505.652344 790.441406 504.191406 786.914062 C 502.730469 783.386719 501.355469 779.828125 500.070312 776.234375 C 498.78125 772.636719 497.585938 769.015625 496.476562 765.363281 C 495.367188 761.710938 494.351562 758.03125 493.421875 754.328125 C 492.496094 750.625 491.65625 746.902344 490.914062 743.15625 C 490.167969 739.414062 489.515625 735.652344 488.953125 731.878906 C 488.394531 728.101562 487.925781 724.316406 487.554688 720.515625 C 487.179688 716.714844 486.898438 712.910156 486.710938 709.097656 C 486.523438 705.285156 486.429688 701.46875 486.429688 697.652344 C 486.429688 693.835938 486.523438 690.019531 486.710938 686.207031 C 486.898438 682.394531 487.179688 678.589844 487.554688 674.789062 C 487.925781 670.992188 488.394531 667.203125 488.953125 663.429688 C 489.515625 659.652344 490.167969 655.890625 490.914062 652.148438 C 491.65625 648.40625 492.496094 644.679688 493.421875 640.976562 C 494.351562 637.273438 495.367188 633.597656 496.476562 629.945312 C 497.585938 626.292969 498.78125 622.667969 500.070312 619.074219 C 501.355469 615.480469 502.730469 611.917969 504.191406 608.390625 C 505.652344 604.867188 507.199219 601.375 508.832031 597.925781 C 510.464844 594.476562 512.179688 591.066406 513.980469 587.699219 C 515.78125 584.332031 517.664062 581.011719 519.625 577.738281 C 521.589844 574.464844 523.632812 571.242188 525.753906 568.066406 C 527.875 564.890625 530.074219 561.773438 532.347656 558.707031 C 534.621094 555.640625 536.972656 552.632812 539.394531 549.679688 C 541.816406 546.730469 544.308594 543.839844 546.875 541.011719 C 549.4375 538.183594 552.070312 535.417969 554.769531 532.71875 C 557.472656 530.019531 560.234375 527.390625 563.066406 524.828125 C 565.894531 522.261719 568.785156 519.769531 571.738281 517.347656 C 574.6875 514.925781 577.699219 512.578125 580.765625 510.304688 C 583.832031 508.03125 586.953125 505.832031 590.128906 503.710938 C 593.304688 501.59375 596.53125 499.550781 599.804688 497.589844 C 603.082031 495.625 606.402344 493.746094 609.769531 491.945312 C 613.136719 490.144531 616.546875 488.429688 620 486.796875 C 623.453125 485.164062 626.941406 483.617188 630.46875 482.160156 C 633.996094 480.699219 637.558594 479.324219 641.15625 478.039062 C 644.75 476.753906 648.375 475.554688 652.027344 474.445312 C 655.683594 473.339844 659.363281 472.320312 663.066406 471.394531 C 666.769531 470.464844 670.496094 469.628906 674.242188 468.886719 C 677.984375 468.140625 681.746094 467.488281 685.523438 466.929688 C 689.300781 466.367188 693.089844 465.902344 696.890625 465.527344 C 700.691406 465.152344 704.5 464.871094 708.3125 464.683594 C 712.125 464.496094 715.941406 464.402344 719.761719 464.402344 C 723.582031 464.402344 727.398438 464.496094 731.210938 464.683594 C 735.023438 464.871094 738.832031 465.152344 742.632812 465.527344 C 746.433594 465.902344 750.222656 466.367188 754 466.929688 C 757.777344 467.488281 761.539062 468.140625 765.28125 468.886719 C 769.027344 469.628906 772.753906 470.464844 776.457031 471.394531 C 780.160156 472.320312 783.839844 473.339844 787.496094 474.445312 C 791.148438 475.554688 794.773438 476.753906 798.367188 478.039062 C 801.964844 479.324219 805.527344 480.699219 809.054688 482.160156 C 812.582031 483.617188 816.070312 485.164062 819.523438 486.796875 C 822.976562 488.429688 826.386719 490.144531 829.753906 491.945312 C 833.121094 493.746094 836.441406 495.625 839.71875 497.589844 C 842.992188 499.550781 846.21875 501.59375 849.394531 503.710938 C 852.570312 505.832031 855.691406 508.03125 858.757812 510.304688 C 861.824219 512.578125 864.835938 514.925781 867.785156 517.347656 C 870.738281 519.769531 873.628906 522.261719 876.457031 524.828125 C 879.289062 527.390625 882.050781 530.019531 884.753906 532.71875 C 887.453125 535.417969 890.085938 538.183594 892.648438 541.011719 C 895.214844 543.839844 897.707031 546.730469 900.128906 549.679688 C 902.550781 552.632812 904.902344 555.640625 907.175781 558.707031 C 909.449219 561.773438 911.648438 564.890625 913.769531 568.066406 C 915.890625 571.242188 917.933594 574.464844 919.898438 577.738281 C 921.859375 581.011719 923.742188 584.332031 925.542969 587.699219 C 927.34375 591.066406 929.058594 594.476562 930.691406 597.925781 C 932.324219 601.375 933.871094 604.867188 935.332031 608.390625 C 936.792969 611.917969 938.167969 615.480469 939.453125 619.074219 C 940.742188 622.667969 941.9375 626.292969 943.046875 629.945312 C 944.15625 633.597656 945.171875 637.273438 946.101562 640.976562 C 947.027344 644.679688 947.867188 648.40625 948.609375 652.148438 C 949.355469 655.890625 950.007812 659.652344 950.566406 663.429688 C 951.128906 667.203125 951.597656 670.992188 951.96875 674.789062 C 952.34375 678.589844 952.625 682.394531 952.8125 686.207031 C 953 690.019531 953.09375 693.835938 953.09375 697.652344 Z M 953.09375 697.652344 " fill-opacity="1" fill-rule="nonzero"/></g><path fill="#31d5de" d="M 824.171875 653.191406 C 878.683594 678.367188 918.8125 721.980469 940.582031 773.171875 C 909.175781 864.925781 822.1875 930.902344 719.761719 930.902344 C 624.207031 930.902344 542.101562 873.488281 506.011719 791.300781 C 508.757812 783.007812 511.992188 774.777344 515.738281 766.664062 C 569.558594 650.183594 707.648438 599.390625 824.171875 653.191406 Z M 824.171875 653.191406 " fill-opacity="1" fill-rule="evenodd"/><path fill="#00bac4" d="M 824.171875 653.191406 C 878.683594 678.367188 918.8125 721.980469 940.582031 773.171875 C 927.511719 811.367188 904.804688 845.082031 875.359375 871.4375 C 900.609375 786.929688 869.738281 695.625 799.636719 643.515625 C 807.886719 646.257812 816.097656 649.46875 824.171875 653.191406 Z M 824.171875 653.191406 " fill-opacity="1" fill-rule="evenodd"/><path fill="#dfe3e8" d="M 877.167969 869.808594 C 876.453125 868.941406 875.695312 867.601562 874.691406 865.394531 C 872.4375 860.535156 875.472656 855.804688 868.757812 856.1875 C 866.417969 860.691406 868.199219 862.742188 869.25 865.796875 C 869.964844 868.09375 871.257812 870.054688 871.011719 872.597656 C 871.078125 872.683594 870.453125 874.9375 870.410156 875.25 L 870.789062 875.429688 C 860.75 883.96875 849.976562 891.636719 838.601562 898.394531 C 838.914062 894.601562 839.25 890.769531 839.582031 886.933594 C 841.300781 874.046875 839.40625 878.484375 838.535156 870.992188 C 838.023438 867.691406 839.472656 866.398438 839.382812 863.632812 C 839.382812 861.605469 838.535156 860.308594 838.445312 857.769531 C 838.3125 853.820312 838.734375 847.957031 834.789062 846.753906 C 832.847656 848.917969 833.117188 859.375 833.203125 861.9375 C 833.292969 864.503906 834.566406 866.175781 833.671875 869.386719 C 832.492188 873.777344 831.886719 872.886719 832.847656 876.675781 C 834.921875 884.503906 830.484375 881.226562 835.210938 890.144531 C 837.6875 894.78125 837.464844 896.476562 837.042969 899.332031 C 808.3125 916.054688 775.703125 926.800781 740.90625 929.945312 C 741.085938 928.964844 741.109375 928.117188 741.398438 927.222656 C 743.359375 920.246094 745.433594 914.136719 743.449219 907.023438 C 741.242188 899.261719 740.972656 901.515625 746.726562 893.085938 C 753.53125 883.523438 747.820312 884.144531 741.644531 880.957031 C 742.957031 869.988281 734.796875 871.859375 727.480469 871.882812 C 722.882812 871.882812 722.527344 868.984375 717.953125 867.625 C 707.828125 864.523438 713.449219 872.082031 705.351562 856.097656 C 701.984375 849.429688 704.570312 853.21875 703.859375 846.484375 C 703.679688 844.101562 701.628906 840.085938 701.027344 837.5 C 698.996094 829.226562 707.5625 825.75 709.949219 818.414062 C 714.429688 804.835938 707.160156 815.09375 721.566406 802.828125 C 729.175781 796.273438 734.953125 798.882812 738.140625 795.847656 C 740.929688 793.128906 741.175781 790.386719 744.945312 788.46875 C 748.199219 786.953125 750.964844 788.847656 753.957031 785.546875 C 757.835938 781.558594 754.890625 779.460938 751.433594 777.722656 C 752.28125 772.058594 751.703125 773.285156 754.957031 769.203125 C 756.765625 766.90625 756.789062 765.414062 758.527344 763.09375 C 762.921875 757.296875 770.953125 768.78125 775.324219 767.597656 C 778.066406 765.527344 779.515625 762.9375 779.070312 759.503906 C 778.511719 756.070312 776.058594 755.335938 776.035156 752.28125 C 779.515625 751.703125 776.839844 752.371094 779.382812 752.925781 C 782.394531 753.574219 782.417969 752.636719 785.917969 753.507812 C 789.039062 754.265625 792.097656 752.480469 795.710938 751.96875 C 800.90625 751.234375 800.082031 748.066406 805.277344 749.515625 C 813.664062 751.746094 808.511719 749.648438 812.707031 742.804688 C 814.089844 742.917969 815.449219 742.917969 816.808594 742.9375 C 817.792969 747.265625 815.292969 744.542969 817.257812 748.042969 C 818.238281 747.957031 819.351562 747.933594 820.402344 747.867188 C 821.582031 744.1875 819.664062 744.121094 820.601562 739.328125 C 816.476562 738.144531 813.578125 740.753906 811.035156 738.167969 C 808.535156 735.648438 810.386719 731.253906 812.191406 727.730469 C 814.558594 725.570312 820.824219 726.707031 823.300781 727.019531 C 827.359375 727.464844 827.964844 724.878906 832.648438 723.183594 C 838.804688 720.910156 833.738281 723.742188 838.289062 719.257812 C 842.996094 721.222656 840.898438 720.039062 844.269531 719.90625 L 844.445312 719.929688 L 844.78125 719.929688 C 846.722656 719.949219 848.90625 720.753906 851.339844 721 C 860.238281 721.980469 862.78125 724.722656 867.332031 729.605469 C 870.832031 733.394531 883.925781 739.503906 882.363281 745.457031 C 877.679688 747.308594 875.785156 743.496094 871.101562 741.691406 C 869.964844 746.328125 870.320312 746.484375 873.621094 749.449219 C 875.203125 747.734375 873.910156 748.089844 875.5625 747.285156 C 876.699219 748.132812 877.859375 748.957031 879.019531 749.761719 C 882.277344 746.015625 883.457031 747.332031 887.964844 748.78125 C 888.632812 745.480469 887.472656 745.972656 890.171875 744.367188 C 894.386719 746.863281 890.972656 744.8125 891.507812 749.359375 C 894.789062 750.386719 899.382812 748.355469 903.867188 749.871094 C 906.65625 750.832031 906.050781 751.769531 910 753.128906 C 913.234375 754.199219 913.613281 753.015625 916.113281 755.738281 C 918.1875 754.175781 917.050781 753.707031 920.015625 754.464844 C 924.542969 755.691406 926.996094 759.953125 930.789062 762.382812 C 929.628906 757.8125 926.929688 756.875 931.101562 753.507812 C 934.582031 759.929688 937.726562 766.484375 940.582031 773.171875 C 927.777344 810.589844 905.742188 843.699219 877.167969 869.808594 Z M 568.089844 874.894531 C 586.980469 891.058594 608.460938 904.234375 631.859375 913.757812 C 635.003906 910.613281 637.8125 906.019531 639.351562 903.097656 C 643.859375 894.292969 640.332031 894.914062 653.359375 887.179688 C 657.574219 884.636719 660.453125 880.46875 659.382812 874.871094 C 657.886719 872.394531 656.882812 873.085938 655.34375 870.34375 C 651.417969 863.03125 654.164062 865.171875 646.847656 860.222656 C 642.164062 856.964844 643.589844 858.460938 642.320312 855.136719 C 640.109375 849.429688 635.09375 849.988281 633.976562 844.902344 C 634.019531 843.140625 634.042969 841.402344 634.199219 839.617188 C 634.199219 838.882812 634.019531 838.191406 634.019531 837.566406 C 634.066406 833.644531 635.226562 834.246094 633.730469 830.5 C 630.25 821.46875 628.355469 825.570312 623.851562 820.824219 C 622.289062 816.851562 620.683594 812.773438 619.078125 808.691406 C 618.898438 807.601562 619.1875 806.773438 618.855469 805.683594 C 618.808594 805.59375 618.699219 805.324219 618.632812 805.238281 C 618.699219 805.125 618.542969 804.902344 618.476562 804.878906 C 617.984375 804.457031 617.425781 803.988281 617.046875 803.542969 C 613.546875 800.128906 612.5625 801.46875 609.53125 800.019531 C 608.527344 799.550781 607.324219 798.769531 605.761719 797.433594 C 602.101562 794.332031 603.621094 789.917969 597.976562 792.550781 C 597.933594 791.191406 597.820312 789.761719 597.820312 788.335938 C 597.152344 788.445312 596.617188 788.535156 595.992188 788.582031 C 589.679688 789.203125 590.148438 786.707031 585.84375 790.5 C 583.390625 792.683594 584.792969 791.65625 581.9375 793.039062 C 578.949219 791.054688 580.601562 789.160156 576.808594 788.15625 C 573.398438 787.265625 572.101562 789.515625 569.738281 785.234375 C 566.726562 779.617188 572.996094 774.355469 575.335938 768.15625 C 570.988281 761.800781 569.226562 765.214844 565.546875 761.246094 C 565.722656 758.8125 568.535156 756.785156 569.78125 755.535156 C 571.835938 753.328125 573.953125 751.324219 574.867188 747.664062 C 568.957031 743.71875 568.46875 746.082031 564.699219 749.09375 C 559.03125 753.617188 547.878906 747.597656 553.234375 734.753906 C 555.085938 729.960938 558.40625 727.753906 561.195312 723.941406 C 563.492188 720.773438 566.839844 720.753906 570.609375 720.128906 C 577.34375 719.148438 577.234375 723.984375 581.160156 724.855469 C 584.707031 725.679688 585.398438 721.378906 592.15625 727.21875 C 598.402344 732.613281 597.953125 728.800781 595.144531 738.390625 C 596.527344 739.773438 598 741.199219 599.558594 742.605469 C 605.316406 728.867188 599.425781 730.585938 611.804688 726.773438 C 615.664062 725.613281 616.601562 726.125 620.4375 725.589844 C 624.964844 724.96875 625.789062 725.191406 627.6875 719.082031 C 627.886719 719.015625 628.109375 718.925781 628.378906 718.859375 C 631.433594 717.808594 634.558594 716.738281 637.679688 715.667969 C 640.890625 714.421875 644.949219 715 648.476562 715.46875 C 651.019531 711.054688 651.664062 711.097656 655.925781 711.300781 L 656.257812 711.320312 C 659.605469 711.433594 662.394531 711.074219 665.472656 712.167969 C 661.96875 714.421875 664.445312 710.875 662.328125 715.46875 C 665.582031 716.160156 667.410156 715.15625 671.628906 715.757812 C 675.484375 716.25 677.871094 717.339844 680.214844 713.730469 C 677.871094 713.128906 667.433594 713.820312 673.078125 707.507812 C 675.308594 705.054688 674.148438 708.488281 676.355469 704.253906 C 675.085938 702.9375 673.902344 701.644531 672.742188 700.285156 C 680.90625 699.769531 677.941406 703.027344 680.683594 706.261719 C 682.402344 705.144531 681.039062 706.238281 681.597656 704.699219 C 683.09375 700.707031 679.636719 705.992188 681.933594 703.382812 C 684.699219 704.230469 686.347656 705.613281 689.136719 706.015625 C 692.257812 706.4375 692.527344 705.121094 696.609375 706.214844 C 692.550781 710.050781 689.582031 708.734375 685.835938 712.59375 C 686.4375 713.128906 695.960938 720.328125 696.164062 720.417969 C 697.1875 718.367188 698.214844 716.339844 699.285156 714.242188 C 698.191406 713.058594 697.144531 711.878906 696.164062 710.695312 C 701.515625 704.253906 707.472656 703.117188 699.195312 694.53125 C 700.824219 688.824219 702.183594 687.152344 702.339844 681.84375 C 697.835938 680.574219 697.367188 683.628906 693.640625 682.648438 C 688.824219 681.308594 692.171875 678.097656 693.664062 675.109375 C 690.652344 671.675781 692.929688 671.699219 689.695312 669.46875 C 688.757812 668.777344 684.164062 666.035156 683.003906 665.433594 C 681.105469 666.324219 679.636719 667.285156 678.453125 668.265625 C 670.558594 674.910156 675.886719 682.871094 658.980469 678.96875 C 656.015625 682.425781 653.003906 688.578125 649.925781 683.292969 C 649.480469 679.125 653.359375 678.078125 654.808594 674.933594 C 653.003906 673.683594 651.554688 672.613281 650.4375 671.675781 C 644.792969 666.816406 647.785156 665.835938 641.449219 662.445312 C 643.34375 657.25 641.269531 659.703125 643.300781 655.535156 C 647.179688 654.261719 653.003906 653.617188 658.957031 653.4375 C 664.175781 653.328125 669.574219 653.640625 673.722656 654.195312 C 672.5625 655.089844 671.382812 655.980469 670.246094 656.804688 C 673.5 661.507812 670.9375 661.886719 673.636719 662.132812 C 676.109375 662.3125 674.101562 661.109375 674.125 661.0625 C 674.191406 659.992188 670.132812 658.320312 675.398438 658.722656 C 677.828125 658.945312 678.410156 660.4375 680.257812 661.777344 C 682.667969 655.824219 677.894531 658.097656 678.921875 652.722656 C 680.996094 655.019531 683.046875 655.710938 685.121094 655.511719 C 688.535156 655.222656 692.058594 652.546875 695.871094 650.828125 C 701.179688 653.28125 702.765625 652.792969 704.863281 658.589844 C 705.796875 661.128906 705.796875 658.410156 705.730469 661.644531 C 704.660156 662.113281 698.683594 663.472656 697.8125 663.492188 C 692.90625 663.671875 693.105469 659.75 688.78125 661.910156 C 689.5625 663.761719 691.65625 663.984375 693.085938 664.585938 C 695.40625 665.433594 695.449219 665.878906 696.074219 667.863281 C 697.722656 673.105469 696.988281 671.945312 701.875 676.046875 C 702.410156 675.824219 702.945312 675.601562 703.566406 675.332031 C 703.703125 675.265625 703.902344 675.15625 704.105469 675.109375 C 704.191406 675.089844 704.460938 675.066406 704.550781 675.042969 C 707.449219 674.820312 704.328125 676.425781 708.273438 676.003906 C 712.734375 675.558594 709.636719 672.347656 711.308594 668.511719 C 715.566406 669.984375 712.132812 671.542969 715.949219 673.214844 C 718.691406 674.417969 720.898438 673.125 722.328125 671.542969 C 721.234375 667.105469 720.253906 668.488281 718.957031 666.125 C 717.507812 663.40625 719.761719 662 719.359375 659.214844 C 719.046875 657.453125 716.484375 655.847656 715.257812 654.464844 C 709.835938 648.152344 720.875 652.035156 698.683594 641.574219 C 696.742188 640.683594 694.847656 640.238281 693.085938 640.261719 C 690.496094 640.304688 688.199219 641.308594 686.460938 643.203125 C 686.570312 645.367188 688.179688 646.125 688.625 648.085938 C 686.484375 649.824219 682.511719 650.652344 679.410156 649.46875 C 684.945312 641.910156 675.175781 649.78125 682 638.164062 C 685.257812 638.296875 688.445312 639.636719 691.457031 638.65625 C 690.855469 637.761719 690.183594 636.828125 689.671875 635.914062 C 689.046875 635.464844 688.421875 635.199219 687.796875 635.042969 C 685.925781 635.378906 684.050781 635.710938 682.179688 636.070312 C 681.085938 636.515625 680.035156 636.9375 679.03125 637.050781 L 679.03125 636.714844 C 677.09375 637.117188 675.152344 637.539062 673.210938 638.007812 C 670.578125 640.839844 672.964844 642.289062 667.96875 642.78125 C 667.96875 642.578125 668.125 642.089844 667.992188 642.179688 C 668.015625 642.3125 668.125 641.6875 668.148438 641.621094 C 668.304688 640.796875 668.484375 639.949219 668.683594 639.144531 C 614.125 653.238281 565.054688 686.949219 532.667969 736.203125 C 534.875 740.441406 538.289062 744.832031 541.679688 748.871094 C 546.40625 754.464844 543.597656 752.082031 549.777344 753.976562 C 553.878906 755.179688 552.875 758.480469 554.28125 761.511719 C 557.292969 768.601562 563.894531 765.191406 563.828125 776.71875 C 563.761719 782.203125 562.242188 775.378906 566.238281 785.660156 C 567.933594 788.066406 569.695312 790.519531 571.457031 792.972656 C 574.132812 791.210938 573.0625 789.828125 576.609375 789.894531 C 577.632812 791.726562 577.8125 796.117188 577.277344 798.925781 C 573.886719 814.023438 559.65625 807.242188 560.617188 821.558594 C 558.027344 824.03125 556.914062 822.785156 556.132812 826.84375 C 555.128906 831.210938 556.847656 830.632812 557.558594 834.042969 C 559.1875 841.179688 557.515625 857.480469 560.972656 863.433594 C 560.996094 863.566406 561.105469 863.699219 561.285156 863.855469 C 563.671875 867.800781 567.261719 871.191406 568.089844 874.894531 Z M 813.621094 786.617188 C 814.980469 788.738281 816.921875 790.789062 817.769531 792.707031 C 817.300781 798.523438 816.097656 795.046875 817.257812 801.914062 C 817.992188 805.660156 816.632812 807.488281 818.015625 810.03125 C 822.097656 811.300781 818.214844 810.878906 821.695312 809.605469 C 822.320312 809.363281 824.148438 808.515625 824.75 808.113281 C 824.394531 805.617188 823.679688 805.101562 823.480469 802.605469 C 830.484375 798.859375 830.863281 803.027344 830.125 807.332031 C 827.984375 819.195312 833.605469 818.035156 837.351562 819.148438 C 841.144531 820.308594 837.777344 819.484375 840.609375 821.824219 C 843.332031 824.03125 842.214844 822.5625 844.648438 823.007812 C 852.832031 824.613281 840.585938 836.230469 839.09375 837.433594 C 834.855469 836.097656 836.039062 835.5625 833.292969 833.957031 C 827.761719 830.65625 832.042969 837.589844 820.402344 826.777344 C 809.160156 816.472656 812.417969 816.832031 805.457031 824.703125 C 802.535156 823.097656 802.9375 822.582031 800.59375 820.355469 C 799.703125 819.441406 799.191406 818.949219 798.832031 818.636719 L 798.699219 818.527344 C 797.761719 817.613281 798.722656 818.480469 797.425781 815.226562 C 796.289062 812.371094 791.515625 809.628906 788.863281 806.152344 C 790.265625 803.140625 794.082031 801.847656 792.519531 796.765625 C 791.605469 796.003906 776.394531 789.71875 773.785156 789.117188 C 768.496094 787.910156 765.753906 791.613281 759.53125 787.644531 C 756.117188 785.460938 757.210938 786.375 757.277344 783.832031 C 759.019531 783.183594 757.546875 783.25 759.910156 783.476562 C 760.824219 783.542969 761.046875 783.785156 761.875 784.03125 C 773.40625 787.375 770.394531 779.394531 779.515625 777.277344 C 787.191406 775.378906 780.675781 777.902344 786.273438 773.863281 C 790.222656 775.292969 788.863281 776.898438 792.808594 776.832031 C 796.113281 776.71875 795.800781 775.136719 799.636719 776.785156 C 801.441406 781.691406 799.8125 783.386719 804.097656 788.492188 C 805.792969 790.5 806.863281 791.679688 807.398438 794.175781 C 808.269531 798.925781 806.640625 796.742188 806.484375 799.664062 C 806.75 799.664062 807.085938 799.664062 807.398438 799.683594 L 807.578125 799.683594 C 811.167969 799.640625 806.972656 797.164062 813.664062 795.160156 C 812.730469 793.507812 812.039062 792.328125 811.414062 791.414062 L 811.300781 791.277344 C 808.601562 787.375 809.136719 790.074219 807.109375 781.9375 C 806.640625 779.660156 806.328125 779.394531 807.597656 776.851562 C 811.300781 777.8125 810.808594 780.574219 812.617188 784.746094 C 812.863281 785.324219 813.195312 785.90625 813.53125 786.460938 Z M 880.871094 811.011719 C 878.195312 818.101562 881.046875 822.605469 882.476562 827.066406 C 880.601562 830.164062 880.222656 828.960938 878.195312 833.53125 C 880.492188 837.589844 882.320312 840.265625 887.359375 841.113281 C 890.527344 835.894531 888.65625 835.359375 888.722656 830.832031 C 889.191406 830.523438 890.214844 830.320312 890.417969 830.277344 C 892.445312 829.160156 890.75 831.234375 892.691406 828.648438 C 889.882812 826.085938 886.113281 820.242188 887.738281 815.628906 C 889.949219 815.09375 889.101562 815.648438 890.664062 815.402344 C 894.03125 814.914062 890.863281 816.585938 893.71875 814.445312 C 893.605469 811.257812 892.335938 810.121094 888.519531 809.941406 C 886.847656 809.851562 881.917969 810.765625 880.871094 811.011719 Z M 851.382812 799.59375 C 850.625 795.558594 851.449219 794.109375 847.300781 792.058594 C 844.804688 793.085938 841.589844 794.867188 839.40625 797.1875 C 836.105469 800.6875 838.402344 798.28125 836.460938 802.828125 C 836.328125 802.960938 836.28125 803.230469 836.214844 803.386719 C 834.898438 806.0625 835.746094 802.5625 835.011719 805.238281 C 838.625 806.0625 836.082031 804.96875 838.890625 805.304688 C 841.570312 805.59375 849.621094 806.730469 851.425781 808.179688 C 855.734375 811.523438 858.03125 817.210938 865.257812 815.917969 C 867.242188 810.921875 862.199219 806.351562 859.121094 802.339844 C 861.421875 797.96875 860.972656 802.046875 862.691406 797.589844 C 861.308594 796.898438 860.574219 796.273438 858.988281 796.230469 C 855.175781 796.160156 856.757812 797.367188 856.511719 797.878906 C 855.554688 800.355469 859.902344 798.835938 855.308594 800.308594 C 854.039062 800.664062 852.566406 799.996094 851.382812 799.59375 Z M 785.292969 727.84375 C 781.523438 735.625 785.472656 734.242188 786.273438 739.304688 C 783.554688 742.070312 784.535156 739.394531 781.636719 742.203125 C 779.113281 744.523438 781.769531 742.605469 778.691406 747.242188 C 780.675781 748.289062 784.023438 748.957031 786.789062 749.960938 C 790.734375 751.367188 790.824219 751.011719 793.925781 747.753906 C 793.035156 744.210938 792.117188 740.640625 791.136719 737.074219 C 790.3125 731.65625 791.738281 735.78125 792.5 731.902344 C 792.429688 730.386719 792.453125 728.890625 792.453125 727.398438 C 788.238281 726.953125 788.75 726.773438 785.292969 727.84375 Z M 785.292969 727.84375 " fill-opacity="1" fill-rule="evenodd"/><path fill="#c5ced9" d="M 877.167969 869.808594 C 876.878906 869.453125 876.566406 869.007812 876.230469 868.449219 C 878.996094 858.683594 881.003906 848.851562 882.296875 838.996094 C 883.589844 840.019531 885.175781 840.734375 887.359375 841.113281 C 890.527344 835.894531 888.65625 835.359375 888.722656 830.832031 C 889.191406 830.523438 890.214844 830.320312 890.417969 830.277344 C 892.445312 829.160156 890.75 831.234375 892.691406 828.648438 C 889.882812 826.085938 886.113281 820.242188 887.738281 815.628906 C 889.949219 815.09375 889.101562 815.648438 890.664062 815.402344 C 894.03125 814.914062 890.863281 816.585938 893.71875 814.445312 C 893.605469 811.257812 892.335938 810.121094 888.519531 809.941406 C 887.605469 809.875 885.753906 810.140625 884.082031 810.410156 C 883.949219 789.316406 880.582031 768.46875 874.3125 748.578125 C 874.78125 747.820312 874.269531 747.910156 875.5625 747.285156 C 876.699219 748.132812 877.859375 748.957031 879.019531 749.761719 C 882.277344 746.015625 883.457031 747.332031 887.964844 748.78125 C 888.632812 745.480469 887.472656 745.972656 890.171875 744.367188 C 894.386719 746.863281 890.972656 744.8125 891.507812 749.359375 C 894.789062 750.386719 899.382812 748.355469 903.867188 749.871094 C 906.65625 750.832031 906.050781 751.769531 910 753.128906 C 913.234375 754.199219 913.613281 753.015625 916.113281 755.738281 C 918.1875 754.175781 917.050781 753.707031 920.015625 754.464844 C 924.542969 755.691406 926.996094 759.953125 930.789062 762.382812 C 929.628906 757.8125 926.929688 756.875 931.101562 753.507812 C 934.582031 759.929688 937.726562 766.484375 940.582031 773.171875 C 927.777344 810.589844 905.742188 843.699219 877.167969 869.808594 Z M 867.265625 729.539062 L 867.332031 729.605469 C 870.832031 733.394531 883.925781 739.503906 882.363281 745.457031 C 878.058594 747.152344 876.097656 744.074219 872.171875 742.15625 C 870.675781 737.898438 869.046875 733.683594 867.265625 729.539062 Z M 867.265625 729.539062 " fill-opacity="1" fill-rule="evenodd"/><path fill="#00bac4" d="M 790.535156 654.574219 L 724.199219 632.300781 L 709.167969 633.503906 L 752.683594 670.339844 L 755.046875 669.78125 L 668.148438 707.039062 L 651.351562 714.398438 L 613.5 702.691406 L 603.171875 709.316406 L 620.171875 728.023438 L 615.195312 730.207031 L 618.339844 739.75 L 630.117188 739.882812 L 616.644531 763.675781 L 638.191406 756.605469 L 650.707031 740.105469 L 682.355469 740.464844 C 682.355469 740.464844 709.523438 731.902344 741.886719 721.554688 L 712.488281 779.195312 L 730.824219 778.613281 L 792.898438 705.121094 C 815.605469 697.71875 835.277344 691.164062 844.089844 687.886719 C 852.855469 684.632812 860.015625 681.265625 865.792969 677.941406 C 853.054688 668.445312 839.160156 660.128906 824.171875 653.191406 C 819.085938 650.851562 813.957031 648.710938 808.78125 646.75 Z M 790.535156 654.574219 " fill-opacity="1" fill-rule="evenodd"/><path fill="#c5ced9" d="M 699.464844 693.617188 L 678.988281 702.402344 C 679.390625 703.496094 679.523438 704.878906 680.683594 706.261719 C 682.402344 705.144531 681.039062 706.238281 681.597656 704.699219 C 683.09375 700.707031 679.636719 705.992188 681.933594 703.382812 C 684.699219 704.230469 686.347656 705.613281 689.136719 706.015625 C 692.257812 706.4375 692.527344 705.121094 696.609375 706.214844 C 692.550781 710.050781 689.582031 708.734375 685.835938 712.59375 C 686.4375 713.128906 695.960938 720.328125 696.164062 720.417969 C 697.1875 718.367188 698.214844 716.339844 699.285156 714.242188 C 698.191406 713.058594 697.144531 711.878906 696.164062 710.695312 C 701.515625 704.253906 707.472656 703.117188 699.195312 694.53125 Z M 675.84375 703.742188 L 668.148438 707.039062 L 658.3125 711.34375 C 660.789062 711.34375 663.039062 711.320312 665.472656 712.167969 C 661.96875 714.421875 664.445312 710.875 662.328125 715.46875 C 665.582031 716.160156 667.410156 715.15625 671.628906 715.757812 C 675.484375 716.25 677.871094 717.339844 680.214844 713.730469 C 677.871094 713.128906 667.433594 713.820312 673.078125 707.507812 C 675.308594 705.054688 674.148438 708.488281 676.355469 704.253906 Z M 649.480469 713.820312 L 613.5 702.691406 L 603.171875 709.316406 L 618.164062 725.835938 C 618.808594 725.769531 619.546875 725.703125 620.4375 725.589844 C 624.964844 724.945312 625.789062 725.191406 627.6875 719.082031 C 627.886719 719.015625 628.109375 718.925781 628.378906 718.835938 C 631.433594 717.808594 634.558594 716.738281 637.679688 715.667969 C 640.890625 714.421875 644.949219 715 648.476562 715.46875 C 648.855469 714.820312 649.1875 714.285156 649.480469 713.820312 Z M 649.480469 713.820312 " fill-opacity="1" fill-rule="evenodd"/><path fill="#eaedf0" d="M 569.492188 610.761719 L 572.503906 621.507812 C 515.402344 649.269531 502.957031 693.304688 520.621094 724.164062 C 507.039062 707.507812 495.730469 654.820312 569.492188 610.761719 Z M 569.492188 610.761719 " fill-opacity="1" fill-rule="evenodd"/><path fill="#ecf0f1" d="M 759.867188 495.84375 L 788.730469 488.460938 C 790.535156 488.015625 792.386719 489.109375 792.855469 490.914062 L 795.644531 501.816406 C 796.113281 503.625 794.996094 505.472656 793.191406 505.941406 L 763.277344 513.566406 C 758.773438 514.726562 754.132812 511.984375 752.972656 507.457031 C 751.679688 502.375 754.78125 497.136719 759.867188 495.84375 Z M 759.867188 495.84375 " fill-opacity="1" fill-rule="evenodd"/><path fill="#cad0d1" d="M 795.039062 499.476562 L 795.644531 501.816406 C 796.113281 503.625 794.839844 505.519531 792.832031 506.03125 L 764.171875 513.34375 C 759.175781 514.617188 754.132812 511.984375 752.972656 507.457031 C 752.816406 506.902344 752.75 506.34375 752.707031 505.785156 C 755.359375 507.816406 759.0625 508.664062 762.765625 507.703125 Z M 795.039062 499.476562 " fill-opacity="1" fill-rule="evenodd"/><path fill="#ff7375" d="M 780.492188 490.570312 L 783.457031 489.8125 L 787.921875 507.292969 L 784.960938 508.050781 Z M 780.492188 490.570312 " fill-opacity="1" fill-rule="evenodd"/><path fill="#ff576b" d="M 820.757812 512.964844 L 718.871094 478.761719 L 699.332031 480.324219 L 755.875 528.171875 Z M 820.757812 512.964844 " fill-opacity="1" fill-rule="evenodd"/><path fill="#ecf0f1" d="M 646.066406 575.84375 L 851.273438 487.882812 C 864.722656 482.105469 883.078125 483.066406 896.730469 488.351562 C 933.578125 487.125 953.472656 521.527344 874.601562 550.960938 C 838.804688 564.316406 664.535156 619.234375 664.535156 619.234375 L 581.382812 618.34375 L 577.320312 605.921875 Z M 646.066406 575.84375 " fill-opacity="1" fill-rule="evenodd"/><path fill="#cad0d1" d="M 918.207031 492.542969 C 937.523438 502.464844 935.605469 528.195312 874.601562 550.960938 C 838.804688 564.316406 664.535156 619.234375 664.535156 619.234375 L 581.382812 618.34375 L 577.320312 605.921875 L 577.992188 605.632812 L 653.894531 606.457031 C 653.894531 606.457031 828.164062 551.539062 863.964844 538.183594 C 906.566406 522.285156 920.351562 504.9375 918.207031 492.542969 Z M 918.207031 492.542969 " fill-opacity="1" fill-rule="evenodd"/><path fill="#ecf0f1" d="M 766.871094 592.078125 L 805.65625 582.175781 C 808.15625 581.53125 810.722656 583.066406 811.347656 585.542969 L 815.183594 600.570312 C 815.828125 603.070312 814.3125 605.609375 811.8125 606.257812 L 771.554688 616.535156 C 765.332031 618.121094 758.953125 614.328125 757.34375 608.109375 C 755.5625 601.085938 759.84375 593.882812 766.871094 592.078125 Z M 766.871094 592.078125 " fill-opacity="1" fill-rule="evenodd"/><path fill="#cad0d1" d="M 814.355469 597.339844 L 815.183594 600.570312 C 815.828125 603.070312 814.113281 605.675781 811.414062 606.367188 L 772.578125 616.269531 C 765.800781 618.007812 758.953125 614.328125 757.34375 608.109375 C 757.167969 607.351562 757.03125 606.570312 756.988281 605.8125 C 760.578125 608.621094 765.621094 609.78125 770.640625 608.507812 Z M 814.355469 597.339844 " fill-opacity="1" fill-rule="evenodd"/><path fill="#ff7375" d="M 794.582031 585.003906 L 798.597656 583.980469 L 804.753906 608.074219 L 800.742188 609.097656 Z M 794.582031 585.003906 " fill-opacity="1" fill-rule="evenodd"/><path fill="#53b4ed" d="M 874.269531 483.980469 C 882.121094 484.203125 889.949219 485.742188 896.664062 488.328125 C 896.617188 488.550781 893.984375 499.476562 881.429688 503.421875 C 868.738281 507.390625 861.21875 497.023438 861.21875 497.023438 C 873.753906 493.300781 874.246094 484.246094 874.269531 483.980469 Z M 874.269531 483.980469 " fill-opacity="1" fill-rule="evenodd"/><path fill="#ff576b" d="M 835.054688 541.441406 L 727.480469 668.800781 L 703.679688 669.535156 L 757.835938 563.378906 Z M 835.054688 541.441406 " fill-opacity="1" fill-rule="evenodd"/><path fill="#ff576b" d="M 634.199219 604.628906 L 607.167969 640.214844 L 579.171875 649.402344 L 598.289062 615.644531 Z M 634.199219 604.628906 " fill-opacity="1" fill-rule="evenodd"/><path fill="#ff576b" d="M 575.089844 570.203125 L 624.25 585.386719 L 583.769531 603.113281 L 561.664062 578.789062 Z M 575.089844 570.203125 " fill-opacity="1" fill-rule="evenodd"/><path fill="#53b4ed" d="M 813.976562 526.917969 L 814.261719 527.652344 C 814.359375 527.90625 814.433594 528.164062 814.480469 528.433594 C 814.527344 528.699219 814.550781 528.96875 814.542969 529.238281 C 814.539062 529.511719 814.507812 529.777344 814.449219 530.042969 C 814.390625 530.308594 814.304688 530.566406 814.195312 530.8125 C 814.085938 531.0625 813.953125 531.296875 813.800781 531.519531 C 813.644531 531.742188 813.46875 531.949219 813.273438 532.136719 C 813.078125 532.324219 812.863281 532.488281 812.636719 532.636719 C 812.40625 532.78125 812.167969 532.902344 811.914062 533.003906 L 807.257812 534.816406 C 807.007812 534.917969 806.746094 534.988281 806.480469 535.035156 C 806.210938 535.082031 805.941406 535.105469 805.671875 535.097656 C 805.398438 535.09375 805.132812 535.0625 804.867188 535.003906 C 804.601562 534.945312 804.34375 534.859375 804.097656 534.75 C 803.847656 534.644531 803.613281 534.511719 803.390625 534.355469 C 803.167969 534.199219 802.964844 534.023438 802.773438 533.828125 C 802.585938 533.632812 802.421875 533.421875 802.273438 533.191406 C 802.128906 532.964844 802.007812 532.722656 801.90625 532.46875 L 801.621094 531.734375 C 801.523438 531.484375 801.449219 531.222656 801.402344 530.957031 C 801.355469 530.6875 801.332031 530.417969 801.339844 530.148438 C 801.34375 529.878906 801.378906 529.609375 801.433594 529.34375 C 801.492188 529.078125 801.578125 528.824219 801.6875 528.574219 C 801.796875 528.328125 801.929688 528.089844 802.082031 527.867188 C 802.238281 527.644531 802.414062 527.441406 802.609375 527.253906 C 802.804688 527.066406 803.019531 526.898438 803.246094 526.753906 C 803.476562 526.605469 803.714844 526.484375 803.96875 526.386719 L 808.625 524.570312 C 808.875 524.472656 809.136719 524.398438 809.402344 524.351562 C 809.671875 524.304688 809.941406 524.285156 810.210938 524.289062 C 810.484375 524.296875 810.75 524.328125 811.015625 524.386719 C 811.28125 524.445312 811.539062 524.527344 811.785156 524.636719 C 812.035156 524.746094 812.269531 524.878906 812.492188 525.03125 C 812.714844 525.1875 812.917969 525.363281 813.109375 525.558594 C 813.296875 525.753906 813.460938 525.96875 813.609375 526.195312 C 813.753906 526.425781 813.875 526.664062 813.976562 526.917969 Z M 813.976562 526.917969 " fill-opacity="1" fill-rule="evenodd"/><path fill="#53b4ed" d="M 793.578125 535.164062 L 793.863281 535.898438 C 793.960938 536.152344 794.035156 536.410156 794.082031 536.679688 C 794.128906 536.945312 794.152344 537.214844 794.144531 537.484375 C 794.140625 537.757812 794.109375 538.023438 794.050781 538.289062 C 793.992188 538.554688 793.90625 538.8125 793.796875 539.058594 C 793.691406 539.308594 793.558594 539.542969 793.402344 539.765625 C 793.246094 539.988281 793.070312 540.191406 792.875 540.378906 C 792.679688 540.566406 792.46875 540.734375 792.238281 540.882812 C 792.007812 541.027344 791.769531 541.148438 791.515625 541.246094 L 786.863281 543.0625 C 786.609375 543.160156 786.347656 543.234375 786.082031 543.28125 C 785.8125 543.328125 785.546875 543.351562 785.273438 543.34375 C 785.003906 543.339844 784.734375 543.308594 784.46875 543.25 C 784.203125 543.191406 783.949219 543.105469 783.699219 542.996094 C 783.449219 542.886719 783.214844 542.757812 782.992188 542.601562 C 782.769531 542.445312 782.566406 542.269531 782.378906 542.074219 C 782.191406 541.878906 782.023438 541.667969 781.875 541.4375 C 781.730469 541.210938 781.609375 540.96875 781.511719 540.714844 L 781.222656 539.980469 C 781.125 539.726562 781.050781 539.46875 781.003906 539.203125 C 780.957031 538.933594 780.9375 538.664062 780.941406 538.394531 C 780.945312 538.121094 780.980469 537.855469 781.039062 537.589844 C 781.097656 537.324219 781.179688 537.070312 781.289062 536.820312 C 781.398438 536.570312 781.53125 536.335938 781.6875 536.113281 C 781.839844 535.890625 782.015625 535.6875 782.210938 535.5 C 782.410156 535.3125 782.621094 535.144531 782.847656 535 C 783.078125 534.851562 783.320312 534.730469 783.570312 534.632812 L 788.226562 532.816406 C 788.480469 532.71875 788.738281 532.644531 789.007812 532.597656 C 789.273438 532.550781 789.542969 532.527344 789.8125 532.535156 C 790.085938 532.539062 790.351562 532.574219 790.617188 532.632812 C 790.882812 532.6875 791.140625 532.773438 791.386719 532.882812 C 791.636719 532.992188 791.871094 533.125 792.09375 533.277344 C 792.316406 533.433594 792.523438 533.609375 792.710938 533.804688 C 792.898438 534 793.066406 534.214844 793.210938 534.441406 C 793.355469 534.671875 793.480469 534.910156 793.578125 535.164062 Z M 793.578125 535.164062 " fill-opacity="1" fill-rule="evenodd"/><path fill="#53b4ed" d="M 773.183594 543.410156 L 773.46875 544.144531 C 773.566406 544.398438 773.640625 544.65625 773.6875 544.921875 C 773.734375 545.191406 773.753906 545.460938 773.75 545.730469 C 773.746094 546.003906 773.710938 546.269531 773.652344 546.535156 C 773.59375 546.800781 773.511719 547.054688 773.402344 547.304688 C 773.292969 547.554688 773.160156 547.789062 773.007812 548.011719 C 772.851562 548.234375 772.675781 548.4375 772.480469 548.625 C 772.285156 548.8125 772.070312 548.980469 771.84375 549.125 C 771.613281 549.273438 771.375 549.394531 771.121094 549.492188 L 766.464844 551.308594 C 766.214844 551.40625 765.953125 551.480469 765.6875 551.527344 C 765.417969 551.574219 765.148438 551.59375 764.878906 551.589844 C 764.605469 551.585938 764.339844 551.550781 764.074219 551.492188 C 763.808594 551.433594 763.550781 551.351562 763.304688 551.242188 C 763.054688 551.132812 762.820312 551 762.597656 550.847656 C 762.375 550.691406 762.167969 550.515625 761.980469 550.320312 C 761.792969 550.125 761.628906 549.910156 761.480469 549.683594 C 761.335938 549.453125 761.210938 549.214844 761.113281 548.960938 L 760.828125 548.226562 C 760.730469 547.972656 760.65625 547.714844 760.609375 547.445312 C 760.5625 547.179688 760.539062 546.910156 760.546875 546.640625 C 760.550781 546.367188 760.582031 546.101562 760.640625 545.835938 C 760.699219 545.570312 760.785156 545.3125 760.894531 545.066406 C 761.003906 544.816406 761.132812 544.582031 761.289062 544.359375 C 761.445312 544.136719 761.621094 543.933594 761.816406 543.746094 C 762.011719 543.554688 762.226562 543.390625 762.453125 543.242188 C 762.683594 543.097656 762.921875 542.976562 763.175781 542.875 L 767.832031 541.0625 C 768.082031 540.964844 768.34375 540.890625 768.609375 540.84375 C 768.878906 540.796875 769.148438 540.773438 769.417969 540.78125 C 769.6875 540.785156 769.957031 540.816406 770.222656 540.875 C 770.488281 540.933594 770.742188 541.019531 770.992188 541.128906 C 771.242188 541.238281 771.476562 541.367188 771.699219 541.523438 C 771.921875 541.679688 772.125 541.855469 772.3125 542.050781 C 772.503906 542.246094 772.667969 542.457031 772.816406 542.6875 C 772.960938 542.914062 773.082031 543.15625 773.183594 543.410156 Z M 773.183594 543.410156 " fill-opacity="1" fill-rule="evenodd"/><path fill="#53b4ed" d="M 752.785156 551.65625 L 753.074219 552.390625 C 753.171875 552.640625 753.246094 552.902344 753.292969 553.167969 C 753.339844 553.4375 753.359375 553.707031 753.355469 553.976562 C 753.347656 554.246094 753.316406 554.515625 753.257812 554.78125 C 753.199219 555.046875 753.117188 555.300781 753.007812 555.550781 C 752.898438 555.796875 752.765625 556.035156 752.609375 556.257812 C 752.457031 556.480469 752.28125 556.683594 752.082031 556.871094 C 751.886719 557.058594 751.675781 557.226562 751.445312 557.371094 C 751.21875 557.519531 750.976562 557.640625 750.726562 557.738281 L 746.070312 559.554688 C 745.816406 559.652344 745.558594 559.726562 745.289062 559.773438 C 745.023438 559.820312 744.753906 559.839844 744.484375 559.835938 C 744.210938 559.828125 743.941406 559.796875 743.679688 559.738281 C 743.414062 559.679688 743.15625 559.597656 742.90625 559.488281 C 742.660156 559.378906 742.425781 559.246094 742.203125 559.089844 C 741.980469 558.9375 741.773438 558.761719 741.585938 558.566406 C 741.398438 558.371094 741.230469 558.15625 741.085938 557.929688 C 740.941406 557.699219 740.816406 557.460938 740.71875 557.207031 L 740.433594 556.472656 C 740.332031 556.21875 740.261719 555.960938 740.214844 555.691406 C 740.164062 555.425781 740.144531 555.15625 740.148438 554.886719 C 740.15625 554.613281 740.1875 554.34375 740.246094 554.082031 C 740.304688 553.816406 740.390625 553.558594 740.496094 553.3125 C 740.605469 553.0625 740.738281 552.828125 740.894531 552.605469 C 741.050781 552.382812 741.226562 552.175781 741.421875 551.988281 C 741.617188 551.800781 741.828125 551.636719 742.058594 551.488281 C 742.285156 551.34375 742.527344 551.222656 742.78125 551.121094 L 747.433594 549.308594 C 747.6875 549.207031 747.949219 549.136719 748.214844 549.089844 C 748.480469 549.039062 748.75 549.019531 749.023438 549.027344 C 749.292969 549.03125 749.5625 549.0625 749.828125 549.121094 C 750.089844 549.179688 750.347656 549.265625 750.597656 549.371094 C 750.84375 549.480469 751.082031 549.613281 751.304688 549.769531 C 751.527344 549.925781 751.730469 550.101562 751.917969 550.296875 C 752.105469 550.492188 752.273438 550.703125 752.417969 550.933594 C 752.566406 551.160156 752.6875 551.402344 752.785156 551.65625 Z M 752.785156 551.65625 " fill-opacity="1" fill-rule="evenodd"/><path fill="#53b4ed" d="M 732.390625 559.898438 L 732.675781 560.636719 C 732.777344 560.886719 732.847656 561.148438 732.894531 561.414062 C 732.945312 561.679688 732.964844 561.949219 732.960938 562.222656 C 732.953125 562.492188 732.921875 562.761719 732.863281 563.027344 C 732.804688 563.289062 732.722656 563.546875 732.613281 563.796875 C 732.503906 564.042969 732.371094 564.28125 732.214844 564.5 C 732.058594 564.722656 731.882812 564.929688 731.6875 565.117188 C 731.492188 565.304688 731.28125 565.472656 731.050781 565.617188 C 730.824219 565.761719 730.582031 565.886719 730.328125 565.984375 L 725.675781 567.800781 C 725.421875 567.898438 725.160156 567.972656 724.894531 568.019531 C 724.628906 568.066406 724.359375 568.085938 724.085938 568.082031 C 723.816406 568.074219 723.546875 568.042969 723.28125 567.984375 C 723.019531 567.925781 722.761719 567.84375 722.511719 567.734375 C 722.265625 567.625 722.027344 567.492188 721.804688 567.335938 C 721.582031 567.183594 721.378906 567.007812 721.191406 566.808594 C 721.003906 566.613281 720.835938 566.402344 720.691406 566.175781 C 720.542969 565.945312 720.421875 565.703125 720.324219 565.453125 L 720.035156 564.71875 C 719.9375 564.464844 719.863281 564.203125 719.816406 563.9375 C 719.769531 563.671875 719.75 563.402344 719.753906 563.128906 C 719.761719 562.859375 719.792969 562.589844 719.851562 562.328125 C 719.910156 562.0625 719.992188 561.804688 720.101562 561.554688 C 720.210938 561.308594 720.34375 561.074219 720.5 560.851562 C 720.652344 560.628906 720.828125 560.421875 721.027344 560.234375 C 721.222656 560.046875 721.433594 559.878906 721.664062 559.734375 C 721.890625 559.589844 722.132812 559.464844 722.382812 559.367188 L 727.039062 557.554688 C 727.292969 557.453125 727.550781 557.382812 727.820312 557.332031 C 728.085938 557.285156 728.355469 557.265625 728.625 557.269531 C 728.898438 557.277344 729.167969 557.308594 729.429688 557.367188 C 729.695312 557.425781 729.953125 557.507812 730.203125 557.617188 C 730.449219 557.726562 730.683594 557.859375 730.90625 558.015625 C 731.128906 558.171875 731.335938 558.347656 731.523438 558.542969 C 731.710938 558.738281 731.878906 558.949219 732.023438 559.179688 C 732.167969 559.40625 732.292969 559.648438 732.390625 559.898438 Z M 732.390625 559.898438 " fill-opacity="1" fill-rule="evenodd"/><path fill="#53b4ed" d="M 711.996094 568.144531 L 712.28125 568.878906 C 712.378906 569.132812 712.453125 569.394531 712.5 569.660156 C 712.546875 569.925781 712.570312 570.195312 712.5625 570.46875 C 712.558594 570.738281 712.527344 571.007812 712.46875 571.269531 C 712.410156 571.535156 712.324219 571.792969 712.214844 572.042969 C 712.105469 572.289062 711.976562 572.523438 711.820312 572.746094 C 711.664062 572.96875 711.488281 573.175781 711.292969 573.363281 C 711.097656 573.550781 710.882812 573.71875 710.65625 573.863281 C 710.425781 574.007812 710.1875 574.132812 709.933594 574.230469 L 705.277344 576.042969 C 705.027344 576.144531 704.765625 576.214844 704.5 576.265625 C 704.230469 576.3125 703.960938 576.332031 703.691406 576.328125 C 703.421875 576.320312 703.152344 576.289062 702.886719 576.230469 C 702.621094 576.171875 702.367188 576.089844 702.117188 575.980469 C 701.867188 575.871094 701.632812 575.738281 701.410156 575.582031 C 701.1875 575.425781 700.984375 575.25 700.796875 575.054688 C 700.605469 574.859375 700.441406 574.648438 700.292969 574.417969 C 700.148438 574.191406 700.027344 573.949219 699.925781 573.699219 L 699.640625 572.960938 C 699.542969 572.710938 699.46875 572.449219 699.421875 572.183594 C 699.375 571.917969 699.355469 571.648438 699.359375 571.375 C 699.363281 571.105469 699.398438 570.835938 699.457031 570.570312 C 699.515625 570.308594 699.597656 570.050781 699.707031 569.800781 C 699.816406 569.554688 699.949219 569.316406 700.101562 569.097656 C 700.257812 568.875 700.433594 568.667969 700.628906 568.480469 C 700.824219 568.292969 701.039062 568.125 701.265625 567.980469 C 701.496094 567.835938 701.734375 567.710938 701.988281 567.613281 L 706.644531 565.796875 C 706.894531 565.699219 707.15625 565.625 707.421875 565.578125 C 707.691406 565.53125 707.960938 565.511719 708.230469 565.515625 C 708.503906 565.523438 708.769531 565.554688 709.035156 565.613281 C 709.300781 565.671875 709.558594 565.753906 709.804688 565.863281 C 710.054688 565.972656 710.289062 566.105469 710.511719 566.261719 C 710.734375 566.414062 710.941406 566.589844 711.128906 566.785156 C 711.316406 566.984375 711.480469 567.195312 711.628906 567.421875 C 711.773438 567.652344 711.898438 567.894531 711.996094 568.144531 Z M 711.996094 568.144531 " fill-opacity="1" fill-rule="evenodd"/><path fill="#53b4ed" d="M 691.597656 576.390625 L 691.886719 577.125 C 691.984375 577.378906 692.058594 577.636719 692.105469 577.90625 C 692.152344 578.171875 692.171875 578.441406 692.167969 578.710938 C 692.160156 578.984375 692.128906 579.25 692.070312 579.515625 C 692.011719 579.78125 691.929688 580.039062 691.820312 580.285156 C 691.710938 580.535156 691.578125 580.769531 691.421875 580.992188 C 691.269531 581.214844 691.09375 581.421875 690.894531 581.609375 C 690.699219 581.796875 690.488281 581.960938 690.257812 582.109375 C 690.03125 582.253906 689.789062 582.375 689.539062 582.476562 L 684.882812 584.289062 C 684.628906 584.390625 684.371094 584.460938 684.101562 584.507812 C 683.835938 584.554688 683.566406 584.578125 683.296875 584.570312 C 683.023438 584.566406 682.753906 584.535156 682.492188 584.476562 C 682.226562 584.417969 681.96875 584.332031 681.71875 584.222656 C 681.472656 584.117188 681.238281 583.984375 681.015625 583.828125 C 680.792969 583.671875 680.585938 583.496094 680.398438 583.300781 C 680.210938 583.105469 680.042969 582.894531 679.898438 582.664062 C 679.753906 582.4375 679.628906 582.195312 679.53125 581.941406 L 679.246094 581.207031 C 679.144531 580.957031 679.074219 580.695312 679.027344 580.429688 C 678.976562 580.160156 678.957031 579.890625 678.964844 579.621094 C 678.96875 579.351562 679 579.082031 679.058594 578.816406 C 679.117188 578.550781 679.203125 578.296875 679.308594 578.046875 C 679.417969 577.800781 679.550781 577.5625 679.707031 577.339844 C 679.863281 577.117188 680.039062 576.914062 680.234375 576.726562 C 680.429688 576.539062 680.640625 576.371094 680.871094 576.226562 C 681.097656 576.078125 681.339844 575.957031 681.59375 575.859375 L 686.246094 574.042969 C 686.5 573.945312 686.761719 573.871094 687.027344 573.824219 C 687.292969 573.777344 687.5625 573.757812 687.835938 573.761719 C 688.105469 573.769531 688.375 573.800781 688.640625 573.859375 C 688.90625 573.917969 689.160156 574 689.410156 574.109375 C 689.65625 574.21875 689.894531 574.351562 690.117188 574.507812 C 690.339844 574.660156 690.542969 574.835938 690.730469 575.03125 C 690.917969 575.226562 691.085938 575.441406 691.230469 575.667969 C 691.378906 575.898438 691.5 576.136719 691.597656 576.390625 Z M 691.597656 576.390625 " fill-opacity="1" fill-rule="evenodd"/></svg>