<svg xmlns="http://www.w3.org/2000/svg" xmlns:xlink="http://www.w3.org/1999/xlink" width="500" zoomAndPan="magnify" viewBox="0 0 375 374.999991" height="500" preserveAspectRatio="xMidYMid meet" version="1.0"><defs><clipPath id="id1"><path d="M 5.714844 5.945312 L 369.464844 5.945312 L 369.464844 368.941406 L 5.714844 368.941406 Z M 5.714844 5.945312 " clip-rule="nonzero"/></clipPath><clipPath id="id2"><path d="M 21 136 L 360 136 L 360 368.941406 L 21 368.941406 Z M 21 136 " clip-rule="nonzero"/></clipPath><clipPath id="id3"><path d="M 41 138 L 360 138 L 360 368.941406 L 41 368.941406 Z M 41 138 " clip-rule="nonzero"/></clipPath></defs><g clip-path="url(#id1)"><path fill="#154e5e" d="M 369.089844 187.445312 C 369.089844 190.414062 369.015625 193.382812 368.871094 196.347656 C 368.726562 199.316406 368.507812 202.277344 368.214844 205.234375 C 367.921875 208.191406 367.558594 211.136719 367.125 214.074219 C 366.6875 217.011719 366.179688 219.9375 365.597656 222.851562 C 365.019531 225.765625 364.367188 228.664062 363.644531 231.542969 C 362.921875 234.425781 362.132812 237.289062 361.269531 240.128906 C 360.40625 242.972656 359.472656 245.792969 358.472656 248.589844 C 357.46875 251.386719 356.402344 254.15625 355.261719 256.902344 C 354.125 259.644531 352.921875 262.359375 351.648438 265.042969 C 350.378906 267.730469 349.042969 270.382812 347.640625 273 C 346.238281 275.621094 344.773438 278.207031 343.246094 280.753906 C 341.71875 283.300781 340.128906 285.808594 338.476562 288.28125 C 336.824219 290.75 335.113281 293.175781 333.34375 295.5625 C 331.574219 297.949219 329.742188 300.289062 327.859375 302.585938 C 325.972656 304.882812 324.03125 307.128906 322.035156 309.332031 C 320.039062 311.53125 317.988281 313.683594 315.886719 315.785156 C 313.785156 317.882812 311.632812 319.929688 309.429688 321.925781 C 307.226562 323.921875 304.976562 325.859375 302.679688 327.746094 C 300.378906 329.628906 298.039062 331.457031 295.648438 333.226562 C 293.261719 334.996094 290.832031 336.703125 288.359375 338.355469 C 285.890625 340.003906 283.378906 341.59375 280.828125 343.121094 C 278.277344 344.648438 275.691406 346.113281 273.070312 347.511719 C 270.449219 348.914062 267.792969 350.246094 265.105469 351.515625 C 262.421875 352.789062 259.703125 353.992188 256.957031 355.128906 C 254.210938 356.265625 251.4375 357.332031 248.636719 358.332031 C 245.839844 359.335938 243.015625 360.265625 240.171875 361.128906 C 237.328125 361.992188 234.464844 362.78125 231.578125 363.503906 C 228.695312 364.226562 225.796875 364.875 222.882812 365.457031 C 219.964844 366.035156 217.039062 366.542969 214.097656 366.980469 C 211.15625 367.414062 208.207031 367.777344 205.246094 368.070312 C 202.289062 368.359375 199.324219 368.578125 196.355469 368.726562 C 193.386719 368.871094 190.417969 368.941406 187.445312 368.945312 C 184.472656 368.941406 181.5 368.871094 178.53125 368.726562 C 175.5625 368.578125 172.597656 368.359375 169.640625 368.070312 C 166.679688 367.777344 163.730469 367.414062 160.789062 366.980469 C 157.851562 366.542969 154.921875 366.035156 152.007812 365.457031 C 149.089844 364.875 146.191406 364.226562 143.308594 363.503906 C 140.421875 362.78125 137.558594 361.992188 134.714844 361.128906 C 131.871094 360.265625 129.046875 359.335938 126.25 358.332031 C 123.449219 357.332031 120.675781 356.265625 117.929688 355.128906 C 115.183594 353.992188 112.46875 352.789062 109.78125 351.515625 C 107.09375 350.246094 104.4375 348.914062 101.816406 347.511719 C 99.195312 346.113281 96.609375 344.648438 94.058594 343.121094 C 91.507812 341.59375 88.996094 340.003906 86.527344 338.355469 C 84.054688 336.703125 81.625 334.996094 79.238281 333.226562 C 76.847656 331.457031 74.507812 329.628906 72.207031 327.746094 C 69.910156 325.859375 67.660156 323.921875 65.457031 321.925781 C 63.253906 319.929688 61.101562 317.882812 59 315.785156 C 56.898438 313.683594 54.847656 311.53125 52.851562 309.332031 C 50.855469 307.128906 48.914062 304.882812 47.027344 302.585938 C 45.144531 300.289062 43.316406 297.949219 41.542969 295.5625 C 39.773438 293.175781 38.0625 290.75 36.410156 288.28125 C 34.757812 285.808594 33.167969 283.300781 31.640625 280.753906 C 30.113281 278.207031 28.648438 275.621094 27.246094 273 C 25.84375 270.382812 24.507812 267.730469 23.238281 265.042969 C 21.964844 262.359375 20.761719 259.644531 19.625 256.898438 C 18.488281 254.15625 17.417969 251.386719 16.414062 248.589844 C 15.414062 245.792969 14.480469 242.972656 13.617188 240.128906 C 12.757812 237.289062 11.964844 234.425781 11.242188 231.542969 C 10.519531 228.664062 9.867188 225.765625 9.289062 222.851562 C 8.707031 219.9375 8.199219 217.011719 7.761719 214.074219 C 7.328125 211.136719 6.964844 208.191406 6.671875 205.234375 C 6.378906 202.277344 6.160156 199.316406 6.015625 196.347656 C 5.871094 193.382812 5.796875 190.414062 5.796875 187.445312 C 5.796875 184.472656 5.871094 181.503906 6.015625 178.539062 C 6.160156 175.570312 6.378906 172.609375 6.671875 169.652344 C 6.964844 166.695312 7.328125 163.75 7.761719 160.8125 C 8.199219 157.875 8.707031 154.949219 9.289062 152.035156 C 9.867188 149.121094 10.519531 146.222656 11.242188 143.34375 C 11.964844 140.460938 12.757812 137.597656 13.617188 134.757812 C 14.480469 131.914062 15.414062 129.09375 16.414062 126.296875 C 17.417969 123.5 18.488281 120.730469 19.625 117.984375 C 20.761719 115.242188 21.964844 112.527344 23.238281 109.84375 C 24.507812 107.15625 25.84375 104.503906 27.246094 101.886719 C 28.648438 99.265625 30.113281 96.679688 31.640625 94.132812 C 33.167969 91.585938 34.757812 89.078125 36.410156 86.605469 C 38.0625 84.136719 39.773438 81.710938 41.542969 79.324219 C 43.316406 76.9375 45.144531 74.597656 47.027344 72.300781 C 48.914062 70.003906 50.855469 67.757812 52.851562 65.554688 C 54.847656 63.355469 56.898438 61.203125 59 59.101562 C 61.101562 57.003906 63.253906 54.957031 65.457031 52.960938 C 67.660156 50.964844 69.910156 49.027344 72.207031 47.140625 C 74.507812 45.257812 76.847656 43.429688 79.238281 41.660156 C 81.625 39.890625 84.054688 38.183594 86.527344 36.53125 C 88.996094 34.882812 91.507812 33.292969 94.058594 31.765625 C 96.609375 30.238281 99.195312 28.773438 101.816406 27.375 C 104.4375 25.972656 107.09375 24.640625 109.78125 23.371094 C 112.46875 22.097656 115.183594 20.894531 117.929688 19.757812 C 120.675781 18.621094 123.449219 17.554688 126.25 16.554688 C 129.046875 15.550781 131.871094 14.621094 134.714844 13.757812 C 137.558594 12.894531 140.421875 12.105469 143.308594 11.382812 C 146.191406 10.660156 149.089844 10.011719 152.007812 9.429688 C 154.921875 8.851562 157.851562 8.34375 160.789062 7.90625 C 163.730469 7.472656 166.679688 7.109375 169.640625 6.816406 C 172.597656 6.527344 175.5625 6.308594 178.53125 6.160156 C 181.5 6.015625 184.472656 5.945312 187.445312 5.945312 C 190.417969 5.945312 193.386719 6.015625 196.355469 6.160156 C 199.324219 6.308594 202.289062 6.527344 205.246094 6.816406 C 208.207031 7.109375 211.15625 7.472656 214.097656 7.90625 C 217.039062 8.34375 219.964844 8.851562 222.882812 9.429688 C 225.796875 10.011719 228.695312 10.660156 231.578125 11.382812 C 234.464844 12.105469 237.328125 12.894531 240.171875 13.757812 C 243.015625 14.621094 245.839844 15.550781 248.636719 16.554688 C 251.4375 17.554688 254.210938 18.621094 256.957031 19.757812 C 259.703125 20.894531 262.421875 22.097656 265.105469 23.371094 C 267.792969 24.640625 270.449219 25.972656 273.070312 27.375 C 275.691406 28.773438 278.277344 30.238281 280.828125 31.765625 C 283.378906 33.292969 285.890625 34.882812 288.359375 36.53125 C 290.832031 38.183594 293.261719 39.890625 295.648438 41.660156 C 298.039062 43.429688 300.378906 45.257812 302.679688 47.140625 C 304.976562 49.027344 307.226562 50.964844 309.429688 52.960938 C 311.632812 54.957031 313.785156 57.003906 315.886719 59.101562 C 317.988281 61.203125 320.039062 63.355469 322.035156 65.554688 C 324.03125 67.757812 325.972656 70.003906 327.859375 72.300781 C 329.742188 74.597656 331.574219 76.9375 333.34375 79.324219 C 335.113281 81.710938 336.824219 84.136719 338.476562 86.605469 C 340.128906 89.078125 341.71875 91.585938 343.246094 94.132812 C 344.773438 96.679688 346.238281 99.265625 347.640625 101.886719 C 349.042969 104.503906 350.378906 107.15625 351.648438 109.84375 C 352.921875 112.527344 354.125 115.242188 355.261719 117.984375 C 356.402344 120.730469 357.46875 123.5 358.472656 126.296875 C 359.472656 129.09375 360.40625 131.914062 361.269531 134.757812 C 362.132812 137.597656 362.921875 140.460938 363.644531 143.34375 C 364.367188 146.222656 365.019531 149.121094 365.597656 152.035156 C 366.179688 154.949219 366.6875 157.875 367.125 160.8125 C 367.558594 163.75 367.921875 166.695312 368.214844 169.652344 C 368.507812 172.609375 368.726562 175.570312 368.871094 178.539062 C 369.015625 181.503906 369.089844 184.472656 369.089844 187.445312 Z M 369.089844 187.445312 " fill-opacity="1" fill-rule="nonzero"/></g><g clip-path="url(#id2)"><path fill="#31d5de" d="M 268.726562 152.847656 C 311.164062 172.433594 342.402344 206.371094 359.347656 246.207031 C 334.898438 317.605469 267.179688 368.945312 187.445312 368.945312 C 113.054688 368.945312 49.136719 324.265625 21.042969 260.3125 C 23.179688 253.859375 25.695312 247.457031 28.613281 241.140625 C 70.511719 150.503906 178.015625 110.980469 268.726562 152.847656 Z M 268.726562 152.847656 " fill-opacity="1" fill-rule="evenodd"/></g><path fill="#00bac4" d="M 268.726562 152.847656 C 311.164062 172.433594 342.402344 206.371094 359.347656 246.207031 C 349.171875 275.929688 331.496094 302.164062 308.574219 322.671875 C 328.230469 256.914062 304.199219 185.863281 249.625 145.316406 C 256.050781 147.453125 262.4375 149.949219 268.726562 152.847656 Z M 268.726562 152.847656 " fill-opacity="1" fill-rule="evenodd"/><g clip-path="url(#id3)"><path fill="#dfe3e8" d="M 309.980469 321.402344 C 309.425781 320.726562 308.835938 319.6875 308.054688 317.96875 C 306.300781 314.1875 308.664062 310.507812 303.4375 310.804688 C 301.613281 314.308594 303 315.902344 303.816406 318.28125 C 304.375 320.066406 305.378906 321.59375 305.191406 323.574219 C 305.242188 323.640625 304.753906 325.394531 304.722656 325.636719 L 305.015625 325.777344 C 297.203125 332.421875 288.816406 338.390625 279.960938 343.648438 C 280.203125 340.699219 280.464844 337.714844 280.722656 334.730469 C 282.0625 324.699219 280.585938 328.152344 279.90625 322.324219 C 279.507812 319.753906 280.636719 318.75 280.566406 316.597656 C 280.566406 315.019531 279.90625 314.011719 279.839844 312.035156 C 279.734375 308.964844 280.0625 304.402344 276.992188 303.464844 C 275.480469 305.148438 275.6875 313.285156 275.757812 315.28125 C 275.828125 317.273438 276.816406 318.574219 276.121094 321.074219 C 275.203125 324.492188 274.734375 323.796875 275.480469 326.746094 C 277.09375 332.835938 273.640625 330.289062 277.320312 337.226562 C 279.246094 340.835938 279.074219 342.15625 278.746094 344.375 C 256.378906 357.386719 230.992188 365.75 203.90625 368.199219 C 204.042969 367.433594 204.0625 366.773438 204.285156 366.082031 C 205.816406 360.648438 207.429688 355.894531 205.882812 350.363281 C 204.164062 344.324219 203.957031 346.074219 208.4375 339.515625 C 213.734375 332.074219 209.289062 332.558594 204.476562 330.078125 C 205.503906 321.542969 199.148438 323 193.453125 323.015625 C 189.875 323.015625 189.597656 320.761719 186.035156 319.703125 C 178.152344 317.292969 182.53125 323.171875 176.226562 310.734375 C 173.605469 305.546875 175.617188 308.496094 175.0625 303.253906 C 174.925781 301.398438 173.328125 298.277344 172.859375 296.261719 C 171.277344 289.828125 177.945312 287.121094 179.804688 281.410156 C 183.292969 270.84375 177.632812 278.828125 188.851562 269.285156 C 194.769531 264.183594 199.269531 266.214844 201.75 263.851562 C 203.921875 261.738281 204.113281 259.601562 207.046875 258.109375 C 209.582031 256.929688 211.734375 258.40625 214.0625 255.835938 C 217.085938 252.730469 214.792969 251.101562 212.101562 249.746094 C 212.761719 245.339844 212.308594 246.296875 214.84375 243.121094 C 216.25 241.332031 216.269531 240.171875 217.621094 238.367188 C 221.042969 233.855469 227.292969 242.789062 230.699219 241.871094 C 232.832031 240.257812 233.960938 238.246094 233.613281 235.574219 C 233.179688 232.902344 231.269531 232.328125 231.253906 229.953125 C 233.960938 229.5 231.878906 230.019531 233.859375 230.453125 C 236.203125 230.957031 236.21875 230.230469 238.945312 230.90625 C 241.375 231.496094 243.753906 230.105469 246.570312 229.707031 C 250.613281 229.136719 249.972656 226.671875 254.019531 227.800781 C 260.546875 229.535156 256.535156 227.902344 259.800781 222.578125 C 260.875 222.664062 261.9375 222.664062 262.996094 222.679688 C 263.757812 226.046875 261.8125 223.929688 263.34375 226.65625 C 264.105469 226.585938 264.972656 226.566406 265.789062 226.515625 C 266.710938 223.652344 265.21875 223.601562 265.945312 219.871094 C 262.734375 218.953125 260.476562 220.980469 258.496094 218.96875 C 256.554688 217.007812 257.992188 213.589844 259.402344 210.847656 C 261.242188 209.164062 266.121094 210.050781 268.046875 210.292969 C 271.207031 210.640625 271.675781 208.628906 275.324219 207.308594 C 280.117188 205.539062 276.175781 207.742188 279.714844 204.253906 C 283.378906 205.78125 281.75 204.863281 284.371094 204.757812 L 284.507812 204.777344 L 284.769531 204.777344 C 286.28125 204.792969 287.980469 205.417969 289.875 205.609375 C 296.804688 206.371094 298.78125 208.507812 302.324219 212.304688 C 305.050781 215.253906 315.242188 220.007812 314.027344 224.640625 C 310.382812 226.082031 308.90625 223.117188 305.257812 221.710938 C 304.375 225.320312 304.652344 225.441406 307.222656 227.746094 C 308.453125 226.410156 307.445312 226.6875 308.730469 226.066406 C 309.617188 226.722656 310.519531 227.367188 311.421875 227.992188 C 313.957031 225.074219 314.878906 226.097656 318.386719 227.226562 C 318.90625 224.660156 318.003906 225.042969 320.105469 223.792969 C 323.386719 225.734375 320.730469 224.140625 321.148438 227.679688 C 323.699219 228.476562 327.277344 226.898438 330.765625 228.078125 C 332.9375 228.824219 332.46875 229.550781 335.542969 230.609375 C 338.058594 231.445312 338.355469 230.523438 340.300781 232.640625 C 341.914062 231.425781 341.03125 231.0625 343.339844 231.652344 C 346.863281 232.605469 348.773438 235.917969 351.726562 237.8125 C 350.824219 234.253906 348.722656 233.527344 351.96875 230.90625 C 354.675781 235.902344 357.125 241.003906 359.347656 246.207031 C 349.382812 275.320312 332.226562 301.085938 309.980469 321.402344 Z M 69.367188 325.359375 C 84.074219 337.9375 100.796875 348.191406 119.011719 355.601562 C 121.460938 353.15625 123.648438 349.582031 124.847656 347.308594 C 128.351562 340.453125 125.609375 340.941406 135.75 334.917969 C 139.03125 332.941406 141.273438 329.699219 140.4375 325.34375 C 139.277344 323.417969 138.492188 323.953125 137.296875 321.820312 C 134.238281 316.128906 136.375 317.796875 130.679688 313.945312 C 127.035156 311.410156 128.144531 312.574219 127.15625 309.988281 C 125.4375 305.546875 121.527344 305.980469 120.660156 302.023438 C 120.695312 300.652344 120.714844 299.300781 120.835938 297.910156 C 120.835938 297.339844 120.695312 296.800781 120.695312 296.316406 C 120.730469 293.261719 121.632812 293.730469 120.46875 290.816406 C 117.761719 283.789062 116.285156 286.980469 112.777344 283.285156 C 111.5625 280.199219 110.3125 277.023438 109.0625 273.847656 C 108.921875 272.996094 109.148438 272.355469 108.886719 271.503906 C 108.851562 271.433594 108.765625 271.226562 108.714844 271.15625 C 108.765625 271.070312 108.644531 270.898438 108.59375 270.878906 C 108.210938 270.550781 107.777344 270.1875 107.480469 269.839844 C 104.753906 267.183594 103.992188 268.226562 101.628906 267.097656 C 100.847656 266.734375 99.910156 266.125 98.695312 265.085938 C 95.847656 262.671875 97.027344 259.238281 92.636719 261.285156 C 92.601562 260.226562 92.515625 259.117188 92.515625 258.007812 C 91.992188 258.09375 91.574219 258.164062 91.089844 258.199219 C 86.175781 258.683594 86.539062 256.738281 83.1875 259.6875 C 81.277344 261.390625 82.375 260.589844 80.152344 261.667969 C 77.824219 260.125 79.109375 258.648438 76.15625 257.867188 C 73.5 257.171875 72.492188 258.925781 70.652344 255.59375 C 68.308594 251.222656 73.1875 247.128906 75.011719 242.304688 C 71.625 237.359375 70.253906 240.015625 67.386719 236.925781 C 67.527344 235.035156 69.714844 233.457031 70.6875 232.484375 C 72.285156 230.765625 73.933594 229.207031 74.644531 226.359375 C 70.042969 223.289062 69.664062 225.128906 66.726562 227.46875 C 62.316406 230.992188 53.636719 226.308594 57.804688 216.3125 C 59.242188 212.582031 61.832031 210.867188 64 207.898438 C 65.789062 205.433594 68.394531 205.417969 71.328125 204.933594 C 76.574219 204.167969 76.488281 207.933594 79.542969 208.609375 C 82.304688 209.253906 82.84375 205.902344 88.101562 210.449219 C 92.964844 214.648438 92.617188 211.679688 90.429688 219.140625 C 91.507812 220.21875 92.652344 221.328125 93.867188 222.421875 C 98.347656 211.734375 93.765625 213.070312 103.402344 210.101562 C 106.40625 209.199219 107.132812 209.597656 110.121094 209.183594 C 113.644531 208.699219 114.289062 208.871094 115.765625 204.117188 C 115.921875 204.066406 116.09375 203.996094 116.300781 203.945312 C 118.679688 203.128906 121.113281 202.296875 123.542969 201.460938 C 126.042969 200.492188 129.203125 200.941406 131.949219 201.304688 C 133.925781 197.871094 134.429688 197.90625 137.746094 198.0625 L 138.007812 198.078125 C 140.613281 198.164062 142.78125 197.886719 145.179688 198.738281 C 142.453125 200.492188 144.378906 197.730469 142.730469 201.304688 C 145.265625 201.84375 146.691406 201.0625 149.972656 201.53125 C 152.976562 201.914062 154.832031 202.761719 156.65625 199.953125 C 154.832031 199.484375 146.707031 200.023438 151.101562 195.113281 C 152.835938 193.203125 151.933594 195.875 153.652344 192.578125 C 152.664062 191.554688 151.742188 190.550781 150.839844 189.492188 C 157.195312 189.089844 154.886719 191.625 157.023438 194.140625 C 158.359375 193.273438 157.300781 194.125 157.734375 192.925781 C 158.898438 189.820312 156.207031 193.933594 157.992188 191.902344 C 160.148438 192.5625 161.433594 193.636719 163.601562 193.949219 C 166.035156 194.28125 166.242188 193.253906 169.417969 194.105469 C 166.257812 197.089844 163.949219 196.066406 161.03125 199.066406 C 161.5 199.484375 168.914062 205.089844 169.074219 205.15625 C 169.871094 203.5625 170.667969 201.984375 171.503906 200.351562 C 170.652344 199.433594 169.835938 198.511719 169.074219 197.59375 C 173.238281 192.578125 177.875 191.695312 171.433594 185.015625 C 172.703125 180.574219 173.761719 179.269531 173.882812 175.140625 C 170.375 174.152344 170.011719 176.53125 167.109375 175.765625 C 163.359375 174.726562 165.964844 172.226562 167.128906 169.902344 C 164.785156 167.230469 166.554688 167.246094 164.035156 165.511719 C 163.308594 164.976562 159.730469 162.839844 158.828125 162.371094 C 157.351562 163.066406 156.207031 163.8125 155.285156 164.574219 C 149.136719 169.746094 153.289062 175.941406 140.125 172.902344 C 137.816406 175.59375 135.472656 180.382812 133.078125 176.269531 C 132.730469 173.027344 135.75 172.210938 136.878906 169.761719 C 135.472656 168.792969 134.34375 167.960938 133.476562 167.230469 C 129.082031 163.449219 131.410156 162.683594 126.476562 160.046875 C 127.953125 156.003906 126.339844 157.914062 127.917969 154.667969 C 130.941406 153.679688 135.472656 153.175781 140.109375 153.039062 C 144.171875 152.953125 148.375 153.195312 151.605469 153.628906 C 150.699219 154.320312 149.78125 155.015625 148.894531 155.65625 C 151.429688 159.320312 149.433594 159.613281 151.535156 159.804688 C 153.460938 159.945312 151.898438 159.007812 151.917969 158.972656 C 151.96875 158.140625 148.808594 156.835938 152.90625 157.148438 C 154.800781 157.324219 155.25 158.484375 156.691406 159.527344 C 158.566406 154.894531 154.851562 156.664062 155.648438 152.484375 C 157.265625 154.269531 158.863281 154.808594 160.476562 154.652344 C 163.132812 154.425781 165.878906 152.34375 168.847656 151.007812 C 172.980469 152.917969 174.210938 152.535156 175.84375 157.046875 C 176.574219 159.023438 176.574219 156.90625 176.523438 159.421875 C 175.6875 159.789062 171.035156 160.84375 170.355469 160.863281 C 166.535156 161 166.695312 157.949219 163.324219 159.632812 C 163.933594 161.070312 165.566406 161.246094 166.675781 161.714844 C 168.480469 162.371094 168.515625 162.71875 169.003906 164.261719 C 170.289062 168.339844 169.714844 167.4375 173.515625 170.632812 C 173.933594 170.457031 174.351562 170.285156 174.835938 170.074219 C 174.941406 170.023438 175.097656 169.9375 175.253906 169.902344 C 175.324219 169.886719 175.53125 169.867188 175.601562 169.851562 C 177.859375 169.675781 175.425781 170.925781 178.5 170.597656 C 181.972656 170.25 179.558594 167.75 180.863281 164.765625 C 184.179688 165.910156 181.503906 167.125 184.472656 168.425781 C 186.609375 169.363281 188.328125 168.359375 189.441406 167.125 C 188.589844 163.671875 187.824219 164.75 186.820312 162.910156 C 185.691406 160.792969 187.445312 159.699219 187.132812 157.53125 C 186.886719 156.160156 184.890625 154.910156 183.9375 153.835938 C 179.714844 148.925781 188.3125 151.945312 171.035156 143.808594 C 169.523438 143.113281 168.046875 142.765625 166.675781 142.785156 C 164.660156 142.820312 162.875 143.597656 161.519531 145.074219 C 161.605469 146.757812 162.855469 147.347656 163.203125 148.875 C 161.535156 150.226562 158.445312 150.871094 156.03125 149.949219 C 160.339844 144.066406 152.734375 150.191406 158.046875 141.152344 C 160.582031 141.257812 163.0625 142.296875 165.410156 141.535156 C 164.941406 140.839844 164.417969 140.113281 164.019531 139.402344 C 163.53125 139.054688 163.046875 138.84375 162.5625 138.722656 C 161.101562 138.984375 159.644531 139.246094 158.183594 139.523438 C 157.335938 139.871094 156.519531 140.199219 155.738281 140.285156 L 155.738281 140.027344 C 154.226562 140.335938 152.714844 140.667969 151.203125 141.03125 C 149.15625 143.234375 151.011719 144.363281 147.125 144.746094 C 147.125 144.589844 147.246094 144.207031 147.140625 144.277344 C 147.160156 144.378906 147.246094 143.894531 147.261719 143.84375 C 147.382812 143.199219 147.523438 142.542969 147.679688 141.917969 C 105.207031 152.882812 67.003906 179.117188 41.792969 217.441406 C 43.511719 220.738281 46.167969 224.15625 48.808594 227.296875 C 52.488281 231.652344 50.300781 229.796875 55.113281 231.269531 C 58.304688 232.207031 57.523438 234.773438 58.617188 237.132812 C 60.964844 242.652344 66.101562 239.996094 66.050781 248.96875 C 66 253.234375 64.816406 247.925781 67.925781 255.925781 C 69.246094 257.796875 70.617188 259.707031 71.988281 261.617188 C 74.074219 260.246094 73.238281 259.167969 76 259.222656 C 76.800781 260.644531 76.9375 264.0625 76.519531 266.246094 C 73.882812 277.992188 62.804688 272.71875 63.550781 283.859375 C 61.535156 285.785156 60.667969 284.8125 60.058594 287.96875 C 59.277344 291.371094 60.617188 290.917969 61.171875 293.574219 C 62.4375 299.125 61.136719 311.808594 63.828125 316.441406 C 63.84375 316.546875 63.933594 316.648438 64.070312 316.769531 C 65.929688 319.84375 68.726562 322.480469 69.367188 325.359375 Z M 260.511719 256.671875 C 261.570312 258.320312 263.082031 259.914062 263.742188 261.40625 C 263.378906 265.933594 262.4375 263.230469 263.34375 268.574219 C 263.914062 271.488281 262.855469 272.910156 263.933594 274.886719 C 267.109375 275.878906 264.089844 275.546875 266.796875 274.558594 C 267.285156 274.367188 268.707031 273.707031 269.175781 273.394531 C 268.898438 271.453125 268.34375 271.054688 268.1875 269.109375 C 273.640625 266.195312 273.933594 269.441406 273.363281 272.789062 C 271.695312 282.019531 276.070312 281.117188 278.988281 281.984375 C 281.9375 282.886719 279.316406 282.246094 281.523438 284.066406 C 283.640625 285.785156 282.773438 284.640625 284.664062 284.984375 C 291.039062 286.234375 281.503906 295.273438 280.339844 296.210938 C 277.042969 295.171875 277.960938 294.753906 275.828125 293.503906 C 271.519531 290.9375 274.855469 296.332031 265.789062 287.917969 C 257.039062 279.902344 259.574219 280.179688 254.15625 286.304688 C 251.882812 285.054688 252.195312 284.65625 250.371094 282.921875 C 249.675781 282.210938 249.277344 281.828125 249 281.585938 L 248.894531 281.5 C 248.164062 280.789062 248.914062 281.464844 247.90625 278.929688 C 247.019531 276.710938 243.304688 274.574219 241.238281 271.871094 C 242.332031 269.527344 245.300781 268.519531 244.085938 264.566406 C 243.375 263.976562 231.53125 259.082031 229.5 258.613281 C 225.382812 257.675781 223.25 260.558594 218.402344 257.46875 C 215.746094 255.769531 216.597656 256.480469 216.648438 254.5 C 218.003906 254 216.859375 254.050781 218.699219 254.222656 C 219.410156 254.277344 219.585938 254.46875 220.226562 254.65625 C 229.203125 257.261719 226.859375 251.050781 233.960938 249.402344 C 239.933594 247.925781 234.863281 249.886719 239.222656 246.746094 C 242.296875 247.855469 241.238281 249.105469 244.3125 249.054688 C 246.882812 248.96875 246.636719 247.734375 249.625 249.019531 C 251.03125 252.835938 249.761719 254.15625 253.097656 258.128906 C 254.417969 259.6875 255.25 260.609375 255.667969 262.550781 C 256.34375 266.246094 255.078125 264.546875 254.957031 266.820312 C 255.164062 266.820312 255.425781 266.820312 255.667969 266.835938 L 255.804688 266.835938 C 258.601562 266.804688 255.335938 264.878906 260.546875 263.316406 C 259.816406 262.03125 259.277344 261.113281 258.792969 260.402344 L 258.707031 260.296875 C 256.605469 257.261719 257.023438 259.359375 255.441406 253.027344 C 255.078125 251.257812 254.832031 251.050781 255.824219 249.070312 C 258.707031 249.816406 258.324219 251.96875 259.730469 255.214844 C 259.921875 255.664062 260.183594 256.117188 260.441406 256.550781 Z M 312.863281 275.652344 C 310.78125 281.167969 313.003906 284.671875 314.113281 288.144531 C 312.65625 290.554688 312.359375 289.617188 310.78125 293.175781 C 312.570312 296.332031 313.992188 298.414062 317.917969 299.074219 C 320.382812 295.015625 318.925781 294.597656 318.976562 291.074219 C 319.339844 290.832031 320.140625 290.675781 320.296875 290.640625 C 321.875 289.773438 320.558594 291.386719 322.066406 289.375 C 319.878906 287.378906 316.945312 282.835938 318.214844 279.242188 C 319.933594 278.828125 319.273438 279.261719 320.488281 279.070312 C 323.109375 278.6875 320.644531 279.988281 322.867188 278.324219 C 322.78125 275.84375 321.789062 274.957031 318.820312 274.820312 C 317.519531 274.75 313.679688 275.460938 312.863281 275.652344 Z M 289.910156 266.769531 C 289.320312 263.628906 289.960938 262.5 286.730469 260.902344 C 284.785156 261.703125 282.285156 263.089844 280.585938 264.894531 C 278.015625 267.617188 279.804688 265.746094 278.292969 269.285156 C 278.1875 269.386719 278.152344 269.597656 278.101562 269.71875 C 277.078125 271.800781 277.738281 269.074219 277.164062 271.15625 C 279.976562 271.800781 277.996094 270.949219 280.183594 271.210938 C 282.269531 271.433594 288.539062 272.320312 289.945312 273.449219 C 293.296875 276.050781 295.082031 280.476562 300.710938 279.46875 C 302.253906 275.582031 298.332031 272.027344 295.933594 268.902344 C 297.722656 265.5 297.375 268.675781 298.714844 265.207031 C 297.636719 264.667969 297.0625 264.183594 295.832031 264.148438 C 292.859375 264.097656 294.09375 265.035156 293.902344 265.433594 C 293.15625 267.359375 296.542969 266.179688 292.964844 267.324219 C 291.976562 267.601562 290.828125 267.082031 289.910156 266.769531 Z M 238.460938 210.933594 C 235.523438 216.992188 238.597656 215.914062 239.222656 219.851562 C 237.105469 222.003906 237.867188 219.921875 235.613281 222.109375 C 233.648438 223.914062 235.714844 222.421875 233.320312 226.03125 C 234.863281 226.84375 237.46875 227.367188 239.621094 228.148438 C 242.695312 229.238281 242.765625 228.960938 245.179688 226.429688 C 244.484375 223.671875 243.773438 220.894531 243.007812 218.117188 C 242.367188 213.902344 243.476562 217.113281 244.066406 214.09375 C 244.015625 212.914062 244.035156 211.75 244.035156 210.589844 C 240.75 210.242188 241.152344 210.101562 238.460938 210.933594 Z M 238.460938 210.933594 " fill-opacity="1" fill-rule="evenodd"/></g><path fill="#c5ced9" d="M 309.980469 321.402344 C 309.757812 321.125 309.511719 320.78125 309.253906 320.34375 C 311.40625 312.746094 312.96875 305.09375 313.976562 297.425781 C 314.984375 298.222656 316.214844 298.78125 317.917969 299.074219 C 320.382812 295.015625 318.925781 294.597656 318.976562 291.074219 C 319.339844 290.832031 320.140625 290.675781 320.296875 290.640625 C 321.875 289.773438 320.558594 291.386719 322.066406 289.375 C 319.878906 287.378906 316.945312 282.835938 318.214844 279.242188 C 319.933594 278.828125 319.273438 279.261719 320.488281 279.070312 C 323.109375 278.6875 320.644531 279.988281 322.867188 278.324219 C 322.78125 275.84375 321.789062 274.957031 318.820312 274.820312 C 318.109375 274.765625 316.667969 274.976562 315.363281 275.183594 C 315.261719 258.769531 312.640625 242.546875 307.757812 227.070312 C 308.125 226.480469 307.726562 226.550781 308.730469 226.066406 C 309.617188 226.722656 310.519531 227.367188 311.421875 227.992188 C 313.957031 225.074219 314.878906 226.097656 318.386719 227.226562 C 318.90625 224.660156 318.003906 225.042969 320.105469 223.792969 C 323.386719 225.734375 320.730469 224.140625 321.148438 227.679688 C 323.699219 228.476562 327.277344 226.898438 330.765625 228.078125 C 332.9375 228.824219 332.46875 229.550781 335.542969 230.609375 C 338.058594 231.445312 338.355469 230.523438 340.300781 232.640625 C 341.914062 231.425781 341.03125 231.0625 343.339844 231.652344 C 346.863281 232.605469 348.773438 235.917969 351.726562 237.8125 C 350.824219 234.253906 348.722656 233.527344 351.96875 230.90625 C 354.675781 235.902344 357.125 241.003906 359.347656 246.207031 C 349.382812 275.320312 332.226562 301.085938 309.980469 321.402344 Z M 302.273438 212.253906 L 302.324219 212.304688 C 305.050781 215.253906 315.242188 220.007812 314.027344 224.640625 C 310.675781 225.960938 309.148438 223.566406 306.09375 222.074219 C 304.929688 218.761719 303.660156 215.480469 302.273438 212.253906 Z M 302.273438 212.253906 " fill-opacity="1" fill-rule="evenodd"/><path fill="#00bac4" d="M 242.539062 153.921875 L 190.898438 136.589844 L 179.195312 137.527344 L 213.074219 166.1875 L 214.914062 165.753906 L 147.261719 194.746094 L 134.1875 200.472656 L 104.722656 191.363281 L 96.679688 196.515625 L 109.914062 211.074219 L 106.039062 212.773438 L 108.488281 220.199219 L 117.65625 220.304688 L 107.167969 238.816406 L 123.941406 233.316406 L 133.683594 220.476562 L 158.324219 220.753906 C 158.324219 220.753906 179.472656 214.09375 204.667969 206.042969 L 181.78125 250.894531 L 196.054688 250.441406 L 244.378906 193.253906 C 262.058594 187.496094 277.371094 182.394531 284.230469 179.84375 C 291.054688 177.3125 296.628906 174.691406 301.125 172.105469 C 291.210938 164.714844 280.394531 158.242188 268.726562 152.847656 C 264.765625 151.027344 260.773438 149.359375 256.742188 147.832031 Z M 242.539062 153.921875 " fill-opacity="1" fill-rule="evenodd"/><path fill="#c5ced9" d="M 171.640625 184.304688 L 155.703125 191.140625 C 156.015625 191.988281 156.117188 193.066406 157.023438 194.140625 C 158.359375 193.273438 157.300781 194.125 157.734375 192.925781 C 158.898438 189.820312 156.207031 193.933594 157.992188 191.902344 C 160.148438 192.5625 161.433594 193.636719 163.601562 193.949219 C 166.035156 194.28125 166.242188 193.253906 169.417969 194.105469 C 166.257812 197.089844 163.949219 196.066406 161.03125 199.066406 C 161.5 199.484375 168.914062 205.089844 169.074219 205.15625 C 169.871094 203.5625 170.667969 201.984375 171.503906 200.351562 C 170.652344 199.433594 169.835938 198.511719 169.074219 197.59375 C 173.238281 192.578125 177.875 191.695312 171.433594 185.015625 Z M 153.253906 192.179688 L 147.261719 194.746094 L 139.605469 198.097656 C 141.53125 198.097656 143.285156 198.078125 145.179688 198.738281 C 142.453125 200.492188 144.378906 197.730469 142.730469 201.304688 C 145.265625 201.84375 146.691406 201.0625 149.972656 201.53125 C 152.976562 201.914062 154.832031 202.761719 156.65625 199.953125 C 154.832031 199.484375 146.707031 200.023438 151.101562 195.113281 C 152.835938 193.203125 151.933594 195.875 153.652344 192.578125 Z M 132.730469 200.023438 L 104.722656 191.363281 L 96.679688 196.515625 L 108.351562 209.375 C 108.851562 209.320312 109.425781 209.269531 110.121094 209.183594 C 113.644531 208.679688 114.289062 208.871094 115.765625 204.117188 C 115.921875 204.066406 116.09375 203.996094 116.300781 203.925781 C 118.679688 203.128906 121.113281 202.296875 123.542969 201.460938 C 126.042969 200.492188 129.203125 200.941406 131.949219 201.304688 C 132.242188 200.804688 132.503906 200.386719 132.730469 200.023438 Z M 132.730469 200.023438 " fill-opacity="1" fill-rule="evenodd"/><path fill="#eaedf0" d="M 70.460938 119.828125 L 72.804688 128.191406 C 28.351562 149.792969 18.664062 184.058594 32.417969 208.074219 C 21.839844 195.113281 13.039062 154.113281 70.460938 119.828125 Z M 70.460938 119.828125 " fill-opacity="1" fill-rule="evenodd"/><path fill="#ecf0f1" d="M 218.664062 30.40625 L 241.132812 24.664062 C 242.539062 24.316406 243.980469 25.167969 244.347656 26.574219 L 246.515625 35.058594 C 246.882812 36.460938 246.011719 37.902344 244.605469 38.265625 L 221.320312 44.199219 C 217.8125 45.101562 214.203125 42.96875 213.296875 39.445312 C 212.292969 35.492188 214.707031 31.414062 218.664062 30.40625 Z M 218.664062 30.40625 " fill-opacity="1" fill-rule="evenodd"/><path fill="#cad0d1" d="M 246.046875 33.234375 L 246.515625 35.058594 C 246.882812 36.460938 245.890625 37.9375 244.328125 38.335938 L 222.015625 44.027344 C 218.125 45.015625 214.203125 42.96875 213.296875 39.445312 C 213.175781 39.011719 213.125 38.578125 213.089844 38.144531 C 215.15625 39.722656 218.039062 40.382812 220.921875 39.636719 Z M 246.046875 33.234375 " fill-opacity="1" fill-rule="evenodd"/><path fill="#ff7375" d="M 234.722656 26.304688 L 237.03125 25.714844 L 240.507812 39.316406 L 238.199219 39.90625 Z M 234.722656 26.304688 " fill-opacity="1" fill-rule="evenodd"/><path fill="#ff576b" d="M 266.070312 43.730469 L 186.75 17.117188 L 171.539062 18.332031 L 215.554688 55.566406 Z M 266.070312 43.730469 " fill-opacity="1" fill-rule="evenodd"/><path fill="#ecf0f1" d="M 130.074219 92.660156 L 289.824219 24.214844 C 300.292969 19.71875 314.582031 20.464844 325.210938 24.578125 C 353.894531 23.625 369.386719 50.394531 307.984375 73.296875 C 280.117188 83.6875 144.449219 126.421875 144.449219 126.421875 L 79.714844 125.730469 L 76.554688 116.066406 Z M 130.074219 92.660156 " fill-opacity="1" fill-rule="evenodd"/><path fill="#cad0d1" d="M 341.933594 27.839844 C 356.96875 35.558594 355.476562 55.582031 307.984375 73.296875 C 280.117188 83.6875 144.449219 126.421875 144.449219 126.421875 L 79.714844 125.730469 L 76.554688 116.066406 L 77.078125 115.839844 L 136.167969 116.480469 C 136.167969 116.480469 271.832031 73.746094 299.703125 63.355469 C 332.867188 50.984375 343.597656 37.484375 341.933594 27.839844 Z M 341.933594 27.839844 " fill-opacity="1" fill-rule="evenodd"/><path fill="#ecf0f1" d="M 224.117188 105.289062 L 254.3125 97.585938 C 256.257812 97.082031 258.253906 98.28125 258.742188 100.207031 L 261.726562 111.902344 C 262.230469 113.84375 261.050781 115.820312 259.105469 116.324219 L 227.761719 124.324219 C 222.917969 125.554688 217.953125 122.605469 216.703125 117.765625 C 215.3125 112.300781 218.648438 106.695312 224.117188 105.289062 Z M 224.117188 105.289062 " fill-opacity="1" fill-rule="evenodd"/><path fill="#cad0d1" d="M 261.085938 109.386719 L 261.726562 111.902344 C 262.230469 113.84375 260.894531 115.875 258.792969 116.410156 L 228.5625 124.117188 C 223.28125 125.46875 217.953125 122.605469 216.703125 117.765625 C 216.5625 117.175781 216.460938 116.566406 216.425781 115.976562 C 219.21875 118.164062 223.144531 119.066406 227.050781 118.078125 Z M 261.085938 109.386719 " fill-opacity="1" fill-rule="evenodd"/><path fill="#ff7375" d="M 245.691406 99.789062 L 248.816406 98.988281 L 253.609375 117.738281 L 250.484375 118.535156 Z M 245.691406 99.789062 " fill-opacity="1" fill-rule="evenodd"/><path fill="#53b4ed" d="M 307.726562 21.175781 C 313.835938 21.351562 319.933594 22.546875 325.160156 24.558594 C 325.125 24.734375 323.074219 33.234375 313.300781 36.304688 C 303.417969 39.394531 297.566406 31.328125 297.566406 31.328125 C 307.324219 28.429688 307.707031 21.386719 307.726562 21.175781 Z M 307.726562 21.175781 " fill-opacity="1" fill-rule="evenodd"/><path fill="#ff576b" d="M 277.199219 65.886719 L 193.453125 164.992188 L 174.925781 165.566406 L 217.085938 82.960938 Z M 277.199219 65.886719 " fill-opacity="1" fill-rule="evenodd"/><path fill="#ff576b" d="M 120.835938 115.058594 L 99.789062 142.75 L 77.996094 149.898438 L 92.878906 123.628906 Z M 120.835938 115.058594 " fill-opacity="1" fill-rule="evenodd"/><path fill="#ff576b" d="M 74.820312 88.269531 L 113.089844 100.085938 L 81.574219 113.878906 L 64.367188 94.949219 Z M 74.820312 88.269531 " fill-opacity="1" fill-rule="evenodd"/><path fill="#53b4ed" d="M 260.789062 54.589844 L 261.011719 55.160156 C 261.167969 55.558594 261.238281 55.96875 261.230469 56.394531 C 261.222656 56.820312 261.132812 57.230469 260.960938 57.621094 C 260.789062 58.011719 260.546875 58.351562 260.242188 58.648438 C 259.933594 58.941406 259.582031 59.167969 259.183594 59.324219 L 255.558594 60.734375 C 255.160156 60.890625 254.75 60.964844 254.324219 60.953125 C 253.898438 60.945312 253.488281 60.855469 253.097656 60.683594 C 252.707031 60.511719 252.363281 60.273438 252.070312 59.964844 C 251.773438 59.660156 251.546875 59.304688 251.394531 58.910156 L 251.171875 58.335938 C 251.015625 57.941406 250.941406 57.527344 250.949219 57.101562 C 250.960938 56.675781 251.050781 56.269531 251.222656 55.878906 C 251.394531 55.488281 251.632812 55.144531 251.941406 54.847656 C 252.246094 54.554688 252.601562 54.328125 253 54.175781 L 256.621094 52.761719 C 257.019531 52.605469 257.429688 52.535156 257.859375 52.542969 C 258.285156 52.550781 258.691406 52.640625 259.082031 52.8125 C 259.472656 52.984375 259.816406 53.222656 260.113281 53.53125 C 260.40625 53.839844 260.632812 54.191406 260.789062 54.589844 Z M 260.789062 54.589844 " fill-opacity="1" fill-rule="evenodd"/><path fill="#53b4ed" d="M 244.910156 61.003906 L 245.132812 61.578125 C 245.285156 61.972656 245.359375 62.386719 245.351562 62.8125 C 245.34375 63.238281 245.25 63.644531 245.082031 64.035156 C 244.910156 64.425781 244.667969 64.769531 244.363281 65.0625 C 244.054688 65.359375 243.699219 65.585938 243.304688 65.738281 L 239.679688 67.152344 C 239.28125 67.304688 238.871094 67.378906 238.445312 67.371094 C 238.015625 67.363281 237.609375 67.273438 237.21875 67.101562 C 236.828125 66.929688 236.484375 66.691406 236.1875 66.382812 C 235.894531 66.074219 235.667969 65.722656 235.515625 65.324219 L 235.289062 64.753906 C 235.136719 64.355469 235.0625 63.945312 235.070312 63.519531 C 235.082031 63.09375 235.171875 62.683594 235.34375 62.292969 C 235.511719 61.902344 235.753906 61.558594 236.0625 61.265625 C 236.367188 60.96875 236.722656 60.746094 237.117188 60.589844 L 240.742188 59.179688 C 241.140625 59.023438 241.550781 58.949219 241.976562 58.960938 C 242.40625 58.96875 242.8125 59.058594 243.203125 59.230469 C 243.59375 59.402344 243.9375 59.640625 244.234375 59.949219 C 244.527344 60.253906 244.753906 60.609375 244.910156 61.003906 Z M 244.910156 61.003906 " fill-opacity="1" fill-rule="evenodd"/><path fill="#53b4ed" d="M 229.03125 67.421875 L 229.253906 67.992188 C 229.410156 68.390625 229.480469 68.800781 229.472656 69.226562 C 229.464844 69.652344 229.375 70.0625 229.203125 70.453125 C 229.03125 70.84375 228.792969 71.183594 228.484375 71.480469 C 228.175781 71.773438 227.824219 72 227.425781 72.15625 L 223.800781 73.566406 C 223.40625 73.722656 222.992188 73.796875 222.566406 73.785156 C 222.140625 73.777344 221.730469 73.6875 221.339844 73.515625 C 220.949219 73.34375 220.605469 73.105469 220.3125 72.796875 C 220.015625 72.492188 219.792969 72.136719 219.636719 71.742188 L 219.414062 71.167969 C 219.257812 70.773438 219.183594 70.359375 219.195312 69.933594 C 219.203125 69.507812 219.292969 69.101562 219.464844 68.710938 C 219.636719 68.320312 219.875 67.976562 220.183594 67.679688 C 220.492188 67.386719 220.84375 67.160156 221.242188 67.007812 L 224.863281 65.59375 C 225.261719 65.4375 225.675781 65.367188 226.101562 65.375 C 226.527344 65.382812 226.9375 65.472656 227.328125 65.644531 C 227.71875 65.816406 228.058594 66.054688 228.355469 66.363281 C 228.652344 66.671875 228.875 67.023438 229.03125 67.421875 Z M 229.03125 67.421875 " fill-opacity="1" fill-rule="evenodd"/><path fill="#53b4ed" d="M 213.152344 73.835938 L 213.375 74.410156 C 213.53125 74.804688 213.605469 75.21875 213.59375 75.644531 C 213.585938 76.070312 213.496094 76.476562 213.324219 76.867188 C 213.152344 77.257812 212.914062 77.601562 212.605469 77.894531 C 212.296875 78.191406 211.945312 78.417969 211.546875 78.570312 L 207.925781 79.984375 C 207.527344 80.136719 207.113281 80.210938 206.6875 80.203125 C 206.261719 80.195312 205.851562 80.105469 205.460938 79.933594 C 205.070312 79.761719 204.730469 79.523438 204.433594 79.214844 C 204.136719 78.90625 203.914062 78.554688 203.757812 78.15625 L 203.535156 77.585938 C 203.378906 77.1875 203.308594 76.777344 203.316406 76.351562 C 203.324219 75.925781 203.414062 75.515625 203.585938 75.125 C 203.757812 74.734375 203.996094 74.394531 204.304688 74.097656 C 204.613281 73.800781 204.964844 73.578125 205.363281 73.421875 L 208.988281 72.011719 C 209.382812 71.855469 209.796875 71.78125 210.222656 71.792969 C 210.648438 71.800781 211.058594 71.890625 211.449219 72.0625 C 211.839844 72.234375 212.183594 72.472656 212.476562 72.78125 C 212.773438 73.085938 212.996094 73.441406 213.152344 73.835938 Z M 213.152344 73.835938 " fill-opacity="1" fill-rule="evenodd"/><path fill="#53b4ed" d="M 197.273438 80.253906 L 197.5 80.824219 C 197.652344 81.222656 197.726562 81.632812 197.71875 82.058594 C 197.707031 82.484375 197.617188 82.894531 197.445312 83.285156 C 197.277344 83.675781 197.035156 84.015625 196.726562 84.3125 C 196.421875 84.605469 196.066406 84.832031 195.671875 84.988281 L 192.046875 86.398438 C 191.648438 86.554688 191.238281 86.628906 190.8125 86.617188 C 190.382812 86.609375 189.976562 86.519531 189.585938 86.347656 C 189.195312 86.175781 188.851562 85.9375 188.554688 85.628906 C 188.261719 85.324219 188.035156 84.96875 187.878906 84.574219 L 187.65625 84 C 187.503906 83.605469 187.429688 83.191406 187.4375 82.765625 C 187.445312 82.339844 187.539062 81.933594 187.707031 81.542969 C 187.878906 81.152344 188.121094 80.808594 188.425781 80.511719 C 188.734375 80.21875 189.089844 79.992188 189.484375 79.839844 L 193.109375 78.425781 C 193.507812 78.269531 193.917969 78.199219 194.34375 78.207031 C 194.773438 78.214844 195.179688 78.304688 195.570312 78.476562 C 195.960938 78.648438 196.304688 78.886719 196.601562 79.195312 C 196.894531 79.503906 197.121094 79.855469 197.273438 80.253906 Z M 197.273438 80.253906 " fill-opacity="1" fill-rule="evenodd"/><path fill="#53b4ed" d="M 181.398438 86.667969 L 181.621094 87.242188 C 181.777344 87.636719 181.847656 88.050781 181.839844 88.476562 C 181.832031 88.902344 181.742188 89.308594 181.570312 89.699219 C 181.398438 90.089844 181.160156 90.433594 180.851562 90.726562 C 180.542969 91.023438 180.191406 91.25 179.792969 91.402344 L 176.167969 92.816406 C 175.773438 92.96875 175.359375 93.042969 174.933594 93.035156 C 174.507812 93.027344 174.097656 92.9375 173.707031 92.765625 C 173.316406 92.59375 172.972656 92.355469 172.679688 92.046875 C 172.382812 91.738281 172.15625 91.386719 172.003906 90.988281 L 171.78125 90.417969 C 171.625 90.019531 171.550781 89.609375 171.558594 89.183594 C 171.570312 88.757812 171.660156 88.347656 171.832031 87.957031 C 172.003906 87.566406 172.242188 87.226562 172.550781 86.929688 C 172.859375 86.632812 173.210938 86.410156 173.609375 86.253906 L 177.230469 84.84375 C 177.628906 84.6875 178.039062 84.613281 178.46875 84.625 C 178.894531 84.632812 179.300781 84.722656 179.691406 84.894531 C 180.082031 85.066406 180.425781 85.304688 180.722656 85.613281 C 181.015625 85.917969 181.242188 86.273438 181.398438 86.667969 Z M 181.398438 86.667969 " fill-opacity="1" fill-rule="evenodd"/><path fill="#53b4ed" d="M 165.519531 93.085938 L 165.742188 93.65625 C 165.898438 94.054688 165.96875 94.464844 165.960938 94.890625 C 165.953125 95.316406 165.863281 95.726562 165.691406 96.117188 C 165.519531 96.507812 165.28125 96.847656 164.972656 97.144531 C 164.664062 97.441406 164.3125 97.664062 163.914062 97.820312 L 160.289062 99.230469 C 159.894531 99.386719 159.480469 99.460938 159.054688 99.449219 C 158.628906 99.441406 158.21875 99.351562 157.828125 99.179688 C 157.4375 99.007812 157.09375 98.769531 156.800781 98.460938 C 156.503906 98.15625 156.28125 97.800781 156.125 97.40625 L 155.902344 96.832031 C 155.746094 96.4375 155.671875 96.023438 155.683594 95.597656 C 155.691406 95.171875 155.78125 94.765625 155.953125 94.375 C 156.125 93.984375 156.363281 93.640625 156.671875 93.347656 C 156.980469 93.050781 157.332031 92.824219 157.730469 92.671875 L 161.351562 91.257812 C 161.75 91.105469 162.164062 91.03125 162.589844 91.039062 C 163.015625 91.046875 163.425781 91.136719 163.816406 91.308594 C 164.207031 91.480469 164.546875 91.71875 164.84375 92.027344 C 165.140625 92.335938 165.363281 92.6875 165.519531 93.085938 Z M 165.519531 93.085938 " fill-opacity="1" fill-rule="evenodd"/></svg>